<svg width="900" height="160" viewBox="0 0 900 160" fill="none" xmlns="http://www.w3.org/2000/svg">
<g clip-path="url(#clip0)">
<rect width="900" height="160" rx="4" fill="white"/>
<rect width="900" height="160" rx="4" fill="#8257E5"/>
<path d="M631 19L640.3 28.3525" stroke="#04D361" stroke-width="2" stroke-miterlimit="10" stroke-linecap="round" stroke-linejoin="round"/>
<path d="M640.3 19L631 28.3525" stroke="#04D361" stroke-width="2" stroke-miterlimit="10" stroke-linecap="round" stroke-linejoin="round"/>
<path d="M81.5749 132.445V145.671" stroke="#04D361" stroke-width="2" stroke-miterlimit="10" stroke-linecap="round" stroke-linejoin="round"/>
<path d="M88.1675 139.056H75" stroke="#04D361" stroke-width="2" stroke-miterlimit="10" stroke-linecap="round" stroke-linejoin="round"/>
<path d="M510.986 128.443C510.986 132.872 507.413 136.481 502.993 136.481C498.588 136.481 495 132.888 495 128.443C495 124.014 498.573 120.405 502.993 120.405C507.413 120.421 510.986 124.014 510.986 128.443Z" stroke="#04D361" stroke-width="2" stroke-miterlimit="10" stroke-linecap="round" stroke-linejoin="round"/>
<path d="M14.5386 25.0401C16.1373 25.0401 17.4334 23.7368 17.4334 22.1291C17.4334 20.5214 16.1373 19.2181 14.5386 19.2181C12.9398 19.2181 11.6437 20.5214 11.6437 22.1291C11.6437 23.7368 12.9398 25.0401 14.5386 25.0401Z" fill="#8257E5"/>
<path d="M34.7427 25.0401C36.3415 25.0401 37.6375 23.7368 37.6375 22.1291C37.6375 20.5214 36.3415 19.2181 34.7427 19.2181C33.144 19.2181 31.8479 20.5214 31.8479 22.1291C31.8479 23.7368 33.144 25.0401 34.7427 25.0401Z" fill="#8257E5"/>
<path d="M54.9622 25.0401C56.561 25.0401 57.8571 23.7368 57.8571 22.1291C57.8571 20.5214 56.561 19.2181 54.9622 19.2181C53.3635 19.2181 52.0674 20.5214 52.0674 22.1291C52.0674 23.7368 53.3635 25.0401 54.9622 25.0401Z" fill="#8257E5"/>
<path d="M14.5389 45.3592C16.1377 45.3592 17.4338 44.0559 17.4338 42.4481C17.4338 40.8404 16.1377 39.5371 14.5389 39.5371C12.9402 39.5371 11.6441 40.8404 11.6441 42.4481C11.6441 44.0559 12.9402 45.3592 14.5389 45.3592Z" fill="#8257E5"/>
<path d="M34.743 45.3592C36.3417 45.3592 37.6378 44.0559 37.6378 42.4481C37.6378 40.8404 36.3417 39.5371 34.743 39.5371C33.1442 39.5371 31.8481 40.8404 31.8481 42.4481C31.8481 44.0559 33.1442 45.3592 34.743 45.3592Z" fill="#8257E5"/>
<path d="M54.9622 45.3592C56.561 45.3592 57.8571 44.0559 57.8571 42.4481C57.8571 40.8404 56.561 39.5371 54.9622 39.5371C53.3635 39.5371 52.0674 40.8404 52.0674 42.4481C52.0674 44.0559 53.3635 45.3592 54.9622 45.3592Z" fill="#8257E5"/>
<path d="M14.5389 65.6935C16.1377 65.6935 17.4338 64.3902 17.4338 62.7825C17.4338 61.1748 16.1377 59.8714 14.5389 59.8714C12.9402 59.8714 11.6441 61.1748 11.6441 62.7825C11.6441 64.3902 12.9402 65.6935 14.5389 65.6935Z" fill="#8257E5"/>
<path d="M34.743 65.6935C36.3417 65.6935 37.6378 64.3902 37.6378 62.7825C37.6378 61.1748 36.3417 59.8714 34.743 59.8714C33.1442 59.8714 31.8481 61.1748 31.8481 62.7825C31.8481 64.3902 33.1442 65.6935 34.743 65.6935Z" fill="#8257E5"/>
<path d="M54.9622 65.6935C56.561 65.6935 57.8571 64.3902 57.8571 62.7825C57.8571 61.1748 56.561 59.8714 54.9622 59.8714C53.3635 59.8714 52.0674 61.1748 52.0674 62.7825C52.0674 64.3902 53.3635 65.6935 54.9622 65.6935Z" fill="#8257E5"/>
<path d="M14.5389 86.0122C16.1377 86.0122 17.4338 84.7088 17.4338 83.1011C17.4338 81.4934 16.1377 80.19 14.5389 80.19C12.9402 80.19 11.6441 81.4934 11.6441 83.1011C11.6441 84.7088 12.9402 86.0122 14.5389 86.0122Z" fill="#8257E5"/>
<path d="M34.743 86.0122C36.3417 86.0122 37.6378 84.7088 37.6378 83.1011C37.6378 81.4934 36.3417 80.19 34.743 80.19C33.1442 80.19 31.8481 81.4934 31.8481 83.1011C31.8481 84.7088 33.1442 86.0122 34.743 86.0122Z" fill="#8257E5"/>
<path d="M54.9622 86.0122C56.561 86.0122 57.8571 84.7088 57.8571 83.1011C57.8571 81.4934 56.561 80.19 54.9622 80.19C53.3635 80.19 52.0674 81.4934 52.0674 83.1011C52.0674 84.7088 53.3635 86.0122 54.9622 86.0122Z" fill="#8257E5"/>
<path d="M897.507 25.0402C899.106 25.0402 900.402 23.7369 900.402 22.1292C900.402 20.5214 899.106 19.2181 897.507 19.2181C895.908 19.2181 894.612 20.5214 894.612 22.1292C894.612 23.7369 895.908 25.0402 897.507 25.0402Z" fill="#8257E5"/>
<path d="M897.507 45.3745C899.106 45.3745 900.402 44.0712 900.402 42.4635C900.402 40.8558 899.106 39.5525 897.507 39.5525C895.908 39.5525 894.612 40.8558 894.612 42.4635C894.612 44.0712 895.908 45.3745 897.507 45.3745Z" fill="#8257E5"/>
<path d="M897.507 65.6936C899.106 65.6936 900.402 64.3903 900.402 62.7826C900.402 61.1748 899.106 59.8715 897.507 59.8715C895.908 59.8715 894.612 61.1748 894.612 62.7826C894.612 64.3903 895.908 65.6936 897.507 65.6936Z" fill="#8257E5"/>
<path d="M897.507 86.0279C899.106 86.0279 900.402 84.7246 900.402 83.1169C900.402 81.5092 899.106 80.2059 897.507 80.2059C895.908 80.2059 894.612 81.5092 894.612 83.1169C894.612 84.7246 895.908 86.0279 897.507 86.0279Z" fill="#8257E5"/>
<path d="M897.507 106.347C899.106 106.347 900.402 105.043 900.402 103.436C900.402 101.828 899.106 100.525 897.507 100.525C895.908 100.525 894.612 101.828 894.612 103.436C894.612 105.043 895.908 106.347 897.507 106.347Z" fill="#8257E5"/>
<path d="M897.507 126.681C899.106 126.681 900.402 125.378 900.402 123.77C900.402 122.162 899.106 120.859 897.507 120.859C895.908 120.859 894.612 122.162 894.612 123.77C894.612 125.378 895.908 126.681 897.507 126.681Z" fill="#8257E5"/>
<path d="M897.507 147C899.106 147 900.402 145.697 900.402 144.089C900.402 142.481 899.106 141.178 897.507 141.178C895.908 141.178 894.612 142.481 894.612 144.089C894.612 145.697 895.908 147 897.507 147Z" fill="#8257E5"/>
<path d="M877.302 25.0402C878.901 25.0402 880.197 23.7369 880.197 22.1292C880.197 20.5214 878.901 19.2181 877.302 19.2181C875.704 19.2181 874.408 20.5214 874.408 22.1292C874.408 23.7369 875.704 25.0402 877.302 25.0402Z" fill="#8257E5"/>
<path d="M877.302 45.3745C878.901 45.3745 880.197 44.0712 880.197 42.4635C880.197 40.8558 878.901 39.5525 877.302 39.5525C875.704 39.5525 874.408 40.8558 874.408 42.4635C874.408 44.0712 875.704 45.3745 877.302 45.3745Z" fill="#8257E5"/>
<path d="M877.302 65.6936C878.901 65.6936 880.197 64.3903 880.197 62.7826C880.197 61.1748 878.901 59.8715 877.302 59.8715C875.704 59.8715 874.408 61.1748 874.408 62.7826C874.408 64.3903 875.704 65.6936 877.302 65.6936Z" fill="#8257E5"/>
<path d="M877.302 86.0279C878.901 86.0279 880.197 84.7246 880.197 83.1169C880.197 81.5092 878.901 80.2059 877.302 80.2059C875.704 80.2059 874.408 81.5092 874.408 83.1169C874.408 84.7246 875.704 86.0279 877.302 86.0279Z" fill="#8257E5"/>
<path d="M877.302 106.347C878.901 106.347 880.197 105.043 880.197 103.436C880.197 101.828 878.901 100.525 877.302 100.525C875.704 100.525 874.408 101.828 874.408 103.436C874.408 105.043 875.704 106.347 877.302 106.347Z" fill="#8257E5"/>
<path d="M877.302 126.681C878.901 126.681 880.197 125.378 880.197 123.77C880.197 122.162 878.901 120.859 877.302 120.859C875.704 120.859 874.408 122.162 874.408 123.77C874.408 125.378 875.704 126.681 877.302 126.681Z" fill="#8257E5"/>
<path d="M877.302 147C878.901 147 880.197 145.697 880.197 144.089C880.197 142.481 878.901 141.178 877.302 141.178C875.704 141.178 874.408 142.481 874.408 144.089C874.408 145.697 875.704 147 877.302 147Z" fill="#8257E5"/>
<path d="M857.084 25.0412C858.682 25.0412 859.978 23.7379 859.978 22.1301C859.978 20.5224 858.682 19.2191 857.084 19.2191C855.485 19.2191 854.189 20.5224 854.189 22.1301C854.189 23.7379 855.485 25.0412 857.084 25.0412Z" fill="#8257E5"/>
<path d="M857.083 45.3745C858.682 45.3745 859.978 44.0712 859.978 42.4635C859.978 40.8558 858.682 39.5525 857.083 39.5525C855.484 39.5525 854.188 40.8558 854.188 42.4635C854.188 44.0712 855.484 45.3745 857.083 45.3745Z" fill="#8257E5"/>
<path d="M857.083 65.6936C858.682 65.6936 859.978 64.3903 859.978 62.7826C859.978 61.1748 858.682 59.8715 857.083 59.8715C855.484 59.8715 854.188 61.1748 854.188 62.7826C854.188 64.3903 855.484 65.6936 857.083 65.6936Z" fill="#8257E5"/>
<path d="M857.083 86.0279C858.682 86.0279 859.978 84.7246 859.978 83.1169C859.978 81.5092 858.682 80.2058 857.083 80.2058C855.484 80.2058 854.188 81.5092 854.188 83.1169C854.188 84.7246 855.484 86.0279 857.083 86.0279Z" fill="#8257E5"/>
<path d="M857.083 106.347C858.682 106.347 859.978 105.043 859.978 103.436C859.978 101.828 858.682 100.525 857.083 100.525C855.484 100.525 854.188 101.828 854.188 103.436C854.188 105.043 855.484 106.347 857.083 106.347Z" fill="#8257E5"/>
<path d="M857.083 126.681C858.682 126.681 859.978 125.378 859.978 123.77C859.978 122.162 858.682 120.859 857.083 120.859C855.484 120.859 854.188 122.162 854.188 123.77C854.188 125.378 855.484 126.681 857.083 126.681Z" fill="#8257E5"/>
<path d="M857.083 147C858.682 147 859.978 145.697 859.978 144.089C859.978 142.481 858.682 141.178 857.083 141.178C855.484 141.178 854.188 142.481 854.188 144.089C854.188 145.697 855.484 147 857.083 147Z" fill="#8257E5"/>
<g clip-path="url(#clip1)">
<path d="M780.926 48.2903H711.074C710.21 48.2903 709.382 48.6343 708.772 49.2467C708.161 49.8591 707.818 50.6897 707.818 51.5557V121.443C707.818 122.309 708.161 123.139 708.772 123.752C709.382 124.364 710.21 124.708 711.074 124.708H780.926C781.79 124.708 782.618 124.364 783.228 123.752C783.839 123.139 784.182 122.309 784.182 121.443V51.5565C784.182 50.6905 783.839 49.8599 783.228 49.2475C782.618 48.6351 781.79 48.2911 780.926 48.2911V48.2903Z" fill="#202024"/>
<path fill-rule="evenodd" clip-rule="evenodd" d="M759.559 69.606C759.559 70.7573 760.036 71.3314 760.99 71.3314C761.564 71.3314 762.195 71.1492 762.874 70.7851L763.738 73.283C762.694 73.8422 761.71 74.124 760.788 74.124C759.442 74.124 758.401 73.7523 757.666 73.0113C756.933 72.2703 756.566 71.2084 756.566 69.8313V64.9049H754.137V62.4538H756.566V58.343L759.563 57.4351V62.4542H763.943V64.9053H759.563L759.56 69.606H759.559ZM740.028 68.7646H731.402C731.554 69.5668 731.89 70.2058 732.412 70.6827C732.935 71.1597 733.542 71.3983 734.24 71.3983C735.526 71.3983 736.464 70.8984 737.054 69.8986L739.732 70.4655C739.248 71.6168 738.53 72.4864 737.577 73.0786C736.623 73.6684 735.511 73.9631 734.24 73.9631C732.605 73.9631 731.228 73.4039 730.108 72.2836C728.988 71.1633 728.429 69.7245 728.429 67.9676C728.429 66.2107 728.993 64.7699 730.121 63.6419C731.249 62.5139 732.638 61.9487 734.286 61.9487C735.83 61.9487 737.157 62.4897 738.265 63.5717C739.374 64.6538 739.964 66.0438 740.023 67.739V68.7646H740.028ZM732.549 65.1081C732.01 65.4721 731.659 65.9849 731.493 66.6521H736.962C736.78 65.9547 736.447 65.4338 735.963 65.0851C735.478 64.7364 734.92 64.5618 734.284 64.5618C733.664 64.5618 733.087 64.7441 732.549 65.1081ZM725.66 63.6205C726.493 64.505 726.908 65.654 726.908 67.0617V73.9651H723.911V67.6955C723.911 66.8932 723.703 66.249 723.285 65.7604C722.87 65.2758 722.314 65.0347 721.617 65.0347C719.741 65.0347 718.803 66.3369 718.803 68.9404V73.9623H715.807V62.63H718.803V63.6532C719.71 62.7453 720.9 62.2914 722.366 62.2914C723.729 62.2889 724.826 62.7324 725.659 63.6197L725.66 63.6205ZM749.426 73.9651H752.988L748.949 68.4461L752.988 62.6328H749.426L746.725 66.5385L744.047 62.6328H740.484L744.523 68.4461L740.484 73.9651H744.047L746.725 70.2623L749.426 73.9651ZM723.091 77.722V93.9315H726.087V77.722H723.091ZM739.501 88.731H730.877C731.028 89.5332 731.364 90.1722 731.887 90.6491C732.409 91.126 733.017 91.3647 733.714 91.3647C735 91.3647 735.939 90.8648 736.528 89.865L739.207 90.4314C738.723 91.5828 738.005 92.4524 737.051 93.0446C736.098 93.6344 734.986 93.9295 733.714 93.9295C732.079 93.9295 730.703 93.3703 729.583 92.2496C728.462 91.1289 727.904 89.6905 727.904 87.934C727.904 86.1775 728.468 84.7363 729.596 83.6083C730.724 82.4803 732.113 81.9159 733.76 81.9159C735.304 81.9159 736.631 82.4569 737.739 83.5393C738.848 84.6218 739.439 86.0114 739.497 87.7066V88.7322L739.501 88.731ZM732.023 85.0745C731.484 85.4385 731.133 85.9513 730.967 86.6185H736.436C736.254 85.9211 735.921 85.401 735.436 85.0515C734.952 84.702 734.393 84.5282 733.758 84.5282C733.14 84.5307 732.561 84.7129 732.023 85.0745ZM739.617 82.5766L744.814 93.9315H747.039L752.236 82.5766H749.035L745.926 89.5719L742.818 82.5766H739.616H739.617ZM763.949 88.731H755.324C755.475 89.5332 755.811 90.1722 756.334 90.6491C756.857 91.126 757.465 91.3647 758.161 91.3647C759.448 91.3647 760.386 90.8648 760.976 89.865L763.654 90.4314C763.17 91.5828 762.452 92.4524 761.499 93.0446C760.545 93.6344 759.433 93.9295 758.161 93.9295C756.526 93.9295 755.15 93.3703 754.03 92.2496C752.91 91.1289 752.351 89.6905 752.351 87.934C752.351 86.1775 752.915 84.7363 754.043 83.6083C755.171 82.4803 756.56 81.9159 758.208 81.9159C759.751 81.9159 761.078 82.4569 762.187 83.5393C763.295 84.6218 763.886 86.0114 763.945 87.7066V88.7322L763.949 88.731ZM756.47 85.0745C755.932 85.4385 755.581 85.9513 755.414 86.6185H760.883C760.702 85.9211 760.369 85.401 759.884 85.0515C759.399 84.702 758.841 84.5282 758.205 84.5282C757.585 84.5307 757.006 84.7129 756.47 85.0745ZM765.766 77.7224V93.9319H768.762V77.722H765.766V77.7224ZM729.206 112.755H726.707L724.257 106.077L721.784 112.755H719.288L715.087 101.4H718.288L720.649 108.19L723.078 101.4H725.416L727.846 108.213L730.206 101.4H733.407L729.206 112.755H729.206ZM736.721 107.554H745.345V106.528C745.286 104.833 744.699 103.443 743.586 102.361C742.474 101.279 741.147 100.738 739.608 100.738C737.96 100.738 736.571 101.302 735.443 102.431C734.315 103.56 733.751 105 733.751 106.757C733.751 108.513 734.314 109.952 735.43 111.072C736.546 112.193 737.926 112.752 739.561 112.752C740.833 112.752 741.945 112.457 742.898 111.867C743.852 111.275 744.57 110.405 745.054 109.254L742.376 108.688C741.786 109.687 740.849 110.187 739.562 110.187C738.865 110.187 738.257 109.949 737.734 109.472C737.211 108.995 736.876 108.356 736.724 107.554L736.721 107.554ZM736.81 105.441C736.977 104.774 737.328 104.261 737.866 103.897C738.402 103.535 738.981 103.353 739.601 103.351C740.236 103.351 740.796 103.525 741.28 103.874C741.764 104.222 742.097 104.743 742.279 105.44H736.811L736.81 105.441ZM757.852 107.554H749.228C749.379 108.356 749.714 108.995 750.237 109.472C750.761 109.949 751.368 110.188 752.065 110.188C753.351 110.188 754.289 109.688 754.878 108.688L757.557 109.255C757.072 110.406 756.355 111.275 755.401 111.868C754.448 112.457 753.335 112.753 752.064 112.753C750.429 112.753 749.053 112.193 747.933 111.073C746.813 109.952 746.254 108.514 746.254 106.757C746.254 105.001 746.818 103.559 747.946 102.431C749.074 101.304 750.463 100.738 752.111 100.738C753.654 100.738 754.981 101.28 756.09 102.362C757.198 103.444 757.789 104.834 757.848 106.529V107.554L757.852 107.554ZM750.373 103.898C749.835 104.262 749.484 104.775 749.317 105.442H754.787C754.605 104.744 754.271 104.224 753.787 103.875C753.303 103.526 752.744 103.352 752.108 103.352C751.488 103.355 750.909 103.536 750.373 103.898V103.898ZM762.119 112.755V108.462L766.661 112.752H770.746L764.843 107.074L770.313 101.42H766.522L762.12 105.872V96.535H759.123V112.755H762.12H762.119Z" fill="white"/>
<path fill-rule="evenodd" clip-rule="evenodd" d="M712.601 66.4518V63.3411L704.017 66.5376L704 66.5312V69.7241L704.017 69.7176L712.601 72.9141V69.8035L708.196 68.1276L712.601 66.4518ZM779.396 113.329V110.218L783.798 108.544L779.396 106.87V103.754L787.977 106.95L787.997 106.942V110.137L787.977 110.129L779.396 113.324V113.329ZM770.818 92.7096V95.1841H780.354V92.7096H770.818H770.818ZM712.113 95.6618V93.1865H721.65V95.6618H712.114H712.113ZM775.711 99.3586L770.664 115.568H773.661L778.707 99.3586H775.711Z" fill="#7159C1"/>
<path d="M786.958 62.0067H773.674C772.955 62.0067 772.372 62.5915 772.372 63.3129V70.661C772.372 71.3824 772.955 71.9672 773.674 71.9672H786.958C787.677 71.9672 788.26 71.3824 788.26 70.661V63.3129C788.26 62.5915 787.677 62.0067 786.958 62.0067Z" fill="#7159C1"/>
<path d="M776.731 67.6717H776.17L775.961 68.8682H775.428L775.637 67.6717H774.977V67.1694H775.724L775.87 66.3405H775.195V65.8325H775.96L776.172 64.6231H776.701L776.489 65.8325H777.053L777.267 64.6231H777.799L777.586 65.8325H778.223V66.3405H777.5L777.355 67.1694H778.006V67.6713H777.267L777.058 68.8678H776.526L776.735 67.6713L776.731 67.6717ZM776.257 67.1698H776.818L776.964 66.3409H776.4L776.257 67.1698ZM781.431 67.119C781.431 67.6947 781.312 68.1349 781.074 68.4401C780.837 68.7452 780.489 68.8976 780.031 68.8976C779.578 68.8976 779.232 68.7485 778.993 68.4485C778.754 68.1486 778.631 67.7205 778.625 67.1617V66.3957C778.625 65.8144 778.745 65.373 778.984 65.0718C779.224 64.7707 779.573 64.6203 780.029 64.6203C780.486 64.6203 780.828 64.7695 781.067 65.0694C781.307 65.3693 781.429 65.7951 781.435 66.3534V67.1194L781.431 67.119ZM780.607 66.278C780.607 65.9329 780.559 65.6822 780.464 65.5258C780.37 65.3693 780.225 65.2839 780.025 65.2839C779.831 65.2839 779.687 65.3593 779.595 65.5096C779.502 65.66 779.455 65.8918 779.45 66.2103V67.2181C779.45 67.5576 779.496 67.81 779.587 67.9761C779.678 68.1421 779.828 68.2179 780.032 68.2179C780.235 68.2179 780.379 68.1389 780.468 67.9761C780.557 67.8132 780.604 67.5757 780.608 67.2496V66.2659L780.607 66.278ZM784.835 68.8404H781.989V68.278L783.332 66.8428C783.517 66.6413 783.652 66.4639 783.74 66.3139C783.827 66.1639 783.874 66.0204 783.874 65.885C783.874 65.6995 783.827 65.5552 783.734 65.4504C783.64 65.3456 783.508 65.2903 783.335 65.2903C783.149 65.2903 783.001 65.3548 782.893 65.4846C782.784 65.6144 782.733 65.7809 782.733 65.991H781.906C781.906 65.737 781.966 65.5056 782.085 65.296C782.205 65.0863 782.378 64.9223 782.599 64.8041C782.819 64.686 783.069 64.6239 783.349 64.6239C783.776 64.6239 784.112 64.7267 784.343 64.9327C784.581 65.1343 784.7 65.4294 784.7 65.8051C784.7 66.0067 784.647 66.2204 784.54 66.434C784.434 66.6477 784.251 66.8964 783.993 67.1798L783.049 68.178H784.834V68.8444L784.835 68.8404Z" fill="white"/>
</g>
<g clip-path="url(#clip2)">
<path d="M145.529 30.4756H121.587C115.215 30.4756 112 33.5684 112 39.6943V72.4803C112 73.2833 112.431 73.7777 113.361 73.7777H120.598C121.464 73.7777 122.022 73.2833 122.022 72.4803V71.2355C122.022 68.1988 123.302 66.5437 126.482 66.2246H145.529C152.518 66.2246 155.674 63.195 155.674 56.5747V40.1256C155.674 33.5052 152.518 30.4756 145.529 30.4756ZM145.663 53.7905C145.663 57.3812 144.849 58.1211 140.578 58.1211H130.434C126.166 58.1211 123.442 59.5447 122.018 62.3289V42.1067C122.018 39.3226 122.698 38.5792 126.1 38.5792H140.578C144.849 38.5792 145.663 39.3226 145.663 42.9097V53.7905Z" fill="white"/>
<path d="M178.624 48.6008C173.119 48.6008 170.766 51.385 170.766 56.0873V72.603C170.766 73.3464 170.394 73.7777 169.528 73.7777H162.971C162.105 73.7777 161.673 73.3464 161.673 72.603V42.4153C161.673 41.6719 162.105 41.2371 162.971 41.2371H168.476C169.283 41.2371 169.714 41.6719 169.714 42.4153V47.2859C170.766 43.2674 173.799 41.2231 179.182 41.2231H181.408C182.211 41.2231 182.642 41.6579 182.642 42.4013V47.4262C182.642 48.2291 182.211 48.6008 181.408 48.6008H178.624Z" fill="white"/>
<path d="M221.305 64.9307C221.305 71.0566 218.584 73.7777 212.09 73.7777H196.006C189.571 73.7777 186.787 71.0566 186.787 64.9307V50.0911C186.787 43.9687 189.571 41.2441 196.006 41.2441H212.09C218.584 41.2441 221.305 43.9687 221.305 50.0911V64.9307ZM212.213 52.437C212.213 49.218 211.596 48.6008 207.76 48.6008H200.396C196.5 48.6008 195.88 49.218 195.88 52.437V62.5814C195.88 65.7968 196.5 66.4175 200.396 66.4175H207.76C211.596 66.4175 212.213 65.7968 212.213 62.5814V52.437Z" fill="white"/>
<path d="M230.461 48.6008H227.365C226.558 48.6008 226.127 48.2291 226.127 47.4262V42.4153C226.127 41.6719 226.558 41.2371 227.365 41.2371H230.457V37.2187C230.461 31.0928 233.676 28 240.048 28H247.657C248.523 28 248.895 28.4348 248.895 29.1747V34.1855C248.895 34.992 248.523 35.3602 247.657 35.3602H243.638C240.234 35.3602 239.553 36.1036 239.553 38.8878V41.2371H247.657C248.523 41.2371 248.895 41.6719 248.895 42.4153V47.4262C248.895 48.2291 248.523 48.6008 247.657 48.6008H239.553V72.603C239.553 73.3464 239.122 73.7777 238.256 73.7777H231.699C230.833 73.7777 230.461 73.3464 230.461 72.603V48.6008Z" fill="white"/>
<path d="M255.701 48.6008H252.612C251.809 48.6008 251.377 48.2291 251.377 47.4262V42.4153C251.377 41.6719 251.809 41.2371 252.612 41.2371H255.708V37.2187C255.701 31.0928 258.923 28 265.288 28H272.897C273.763 28 274.135 28.4348 274.135 29.1747V34.1855C274.135 34.992 273.763 35.3602 272.897 35.3602H268.875C265.474 35.3602 264.793 36.1036 264.793 38.8878V41.2371H272.897C273.763 41.2371 274.135 41.6719 274.135 42.4153V47.4262C274.135 48.2291 273.763 48.6008 272.897 48.6008H264.793V72.603C264.793 73.3464 264.359 73.7777 263.492 73.7777H256.935C256.069 73.7777 255.701 73.3464 255.701 72.603V48.6008Z" fill="white"/>
<path d="M301.784 86.3977H288.298C282.238 86.3977 279.64 84.0483 279.64 78.231V77.6138C279.622 77.4478 279.642 77.2799 279.697 77.1225C279.753 76.9651 279.844 76.8223 279.962 76.7047C280.081 76.5872 280.225 76.4978 280.382 76.4433C280.54 76.3889 280.708 76.3706 280.874 76.3901H287.186C288.052 76.3901 288.483 76.8249 288.483 77.6279V77.9364C288.483 79.1742 289.167 79.6687 290.528 79.6687H298.323C302.033 79.6687 302.962 78.7429 302.962 75.5871V65.8284C301.538 68.6126 298.817 70.0362 294.546 70.0362H288.234C281.8 70.0362 278.953 67.3152 278.953 61.1893V42.4153C278.944 42.2532 278.971 42.0912 279.031 41.9404C279.091 41.7896 279.183 41.6536 279.301 41.5417C279.418 41.4297 279.559 41.3446 279.712 41.292C279.866 41.2395 280.029 41.2207 280.191 41.2371H286.811C287.614 41.2371 288.049 41.6719 288.049 42.4153V58.8574C288.049 62.0729 288.729 62.6936 292.565 62.6936H297.267C301.349 62.6936 302.958 61.021 302.958 57.6196V42.4153C302.958 41.6719 303.39 41.2371 304.196 41.2371H310.82C310.978 41.2218 311.138 41.2418 311.288 41.2957C311.438 41.3495 311.574 41.4359 311.686 41.5486C311.798 41.6613 311.884 41.7974 311.938 41.9473C311.991 42.0972 312.01 42.257 311.995 42.4153V76.5619C311.991 83.0525 308.527 86.3977 301.784 86.3977Z" fill="white"/>
</g>
<path d="M117.364 104.126C116.536 104.126 115.792 103.982 115.132 103.694C114.484 103.394 113.974 102.986 113.602 102.47C113.23 101.942 113.038 101.336 113.026 100.652H114.772C114.832 101.24 115.072 101.738 115.492 102.146C115.924 102.542 116.548 102.74 117.364 102.74C118.144 102.74 118.756 102.548 119.2 102.164C119.656 101.768 119.884 101.264 119.884 100.652C119.884 100.172 119.752 99.782 119.488 99.482C119.224 99.182 118.894 98.954 118.498 98.798C118.102 98.642 117.568 98.474 116.896 98.294C116.068 98.078 115.402 97.862 114.898 97.646C114.406 97.43 113.98 97.094 113.62 96.638C113.272 96.17 113.098 95.546 113.098 94.766C113.098 94.082 113.272 93.476 113.62 92.948C113.968 92.42 114.454 92.012 115.078 91.724C115.714 91.436 116.44 91.292 117.256 91.292C118.432 91.292 119.392 91.586 120.136 92.174C120.892 92.762 121.318 93.542 121.414 94.514H119.614C119.554 94.034 119.302 93.614 118.858 93.254C118.414 92.882 117.826 92.696 117.094 92.696C116.41 92.696 115.852 92.876 115.42 93.236C114.988 93.584 114.772 94.076 114.772 94.712C114.772 95.168 114.898 95.54 115.15 95.828C115.414 96.116 115.732 96.338 116.104 96.494C116.488 96.638 117.022 96.806 117.706 96.998C118.534 97.226 119.2 97.454 119.704 97.682C120.208 97.898 120.64 98.24 121 98.708C121.36 99.164 121.54 99.788 121.54 100.58C121.54 101.192 121.378 101.768 121.054 102.308C120.73 102.848 120.25 103.286 119.614 103.622C118.978 103.958 118.228 104.126 117.364 104.126ZM132.698 94.136V104H131.06V102.542C130.748 103.046 130.31 103.442 129.746 103.73C129.194 104.006 128.582 104.144 127.91 104.144C127.142 104.144 126.452 103.988 125.84 103.676C125.228 103.352 124.742 102.872 124.382 102.236C124.034 101.6 123.86 100.826 123.86 99.914V94.136H125.48V99.698C125.48 100.67 125.726 101.42 126.218 101.948C126.71 102.464 127.382 102.722 128.234 102.722C129.11 102.722 129.8 102.452 130.304 101.912C130.808 101.372 131.06 100.586 131.06 99.554V94.136H132.698ZM134.852 99.032C134.852 98.024 135.056 97.142 135.464 96.386C135.872 95.618 136.43 95.024 137.138 94.604C137.858 94.184 138.656 93.974 139.532 93.974C140.396 93.974 141.146 94.16 141.782 94.532C142.418 94.904 142.892 95.372 143.204 95.936V94.136H144.86V104H143.204V102.164C142.88 102.74 142.394 103.22 141.746 103.604C141.11 103.976 140.366 104.162 139.514 104.162C138.638 104.162 137.846 103.946 137.138 103.514C136.43 103.082 135.872 102.476 135.464 101.696C135.056 100.916 134.852 100.028 134.852 99.032ZM143.204 99.05C143.204 98.306 143.054 97.658 142.754 97.106C142.454 96.554 142.046 96.134 141.53 95.846C141.026 95.546 140.468 95.396 139.856 95.396C139.244 95.396 138.686 95.54 138.182 95.828C137.678 96.116 137.276 96.536 136.976 97.088C136.676 97.64 136.526 98.288 136.526 99.032C136.526 99.788 136.676 100.448 136.976 101.012C137.276 101.564 137.678 101.99 138.182 102.29C138.686 102.578 139.244 102.722 139.856 102.722C140.468 102.722 141.026 102.578 141.53 102.29C142.046 101.99 142.454 101.564 142.754 101.012C143.054 100.448 143.204 99.794 143.204 99.05ZM154.065 95.954C154.389 95.39 154.869 94.922 155.505 94.55C156.153 94.166 156.903 93.974 157.755 93.974C158.631 93.974 159.423 94.184 160.131 94.604C160.851 95.024 161.415 95.618 161.823 96.386C162.231 97.142 162.435 98.024 162.435 99.032C162.435 100.028 162.231 100.916 161.823 101.696C161.415 102.476 160.851 103.082 160.131 103.514C159.423 103.946 158.631 104.162 157.755 104.162C156.915 104.162 156.171 103.976 155.523 103.604C154.887 103.22 154.401 102.746 154.065 102.182V108.68H152.427V94.136H154.065V95.954ZM160.761 99.032C160.761 98.288 160.611 97.64 160.311 97.088C160.011 96.536 159.603 96.116 159.087 95.828C158.583 95.54 158.025 95.396 157.413 95.396C156.813 95.396 156.255 95.546 155.739 95.846C155.235 96.134 154.827 96.56 154.515 97.124C154.215 97.676 154.065 98.318 154.065 99.05C154.065 99.794 154.215 100.448 154.515 101.012C154.827 101.564 155.235 101.99 155.739 102.29C156.255 102.578 156.813 102.722 157.413 102.722C158.025 102.722 158.583 102.578 159.087 102.29C159.603 101.99 160.011 101.564 160.311 101.012C160.611 100.448 160.761 99.788 160.761 99.032ZM166.229 90.68V104H164.591V90.68H166.229ZM168.409 99.032C168.409 98.024 168.613 97.142 169.021 96.386C169.429 95.618 169.987 95.024 170.695 94.604C171.415 94.184 172.213 93.974 173.089 93.974C173.953 93.974 174.703 94.16 175.339 94.532C175.975 94.904 176.449 95.372 176.761 95.936V94.136H178.417V104H176.761V102.164C176.437 102.74 175.951 103.22 175.303 103.604C174.667 103.976 173.923 104.162 173.071 104.162C172.195 104.162 171.403 103.946 170.695 103.514C169.987 103.082 169.429 102.476 169.021 101.696C168.613 100.916 168.409 100.028 168.409 99.032ZM176.761 99.05C176.761 98.306 176.611 97.658 176.311 97.106C176.011 96.554 175.603 96.134 175.087 95.846C174.583 95.546 174.025 95.396 173.413 95.396C172.801 95.396 172.243 95.54 171.739 95.828C171.235 96.116 170.833 96.536 170.533 97.088C170.233 97.64 170.083 98.288 170.083 99.032C170.083 99.788 170.233 100.448 170.533 101.012C170.833 101.564 171.235 101.99 171.739 102.29C172.243 102.578 172.801 102.722 173.413 102.722C174.025 102.722 174.583 102.578 175.087 102.29C175.603 101.99 176.011 101.564 176.311 101.012C176.611 100.448 176.761 99.794 176.761 99.05ZM185.199 95.486H183.129V104H181.491V95.486H180.213V94.136H181.491V93.434C181.491 92.33 181.773 91.526 182.337 91.022C182.913 90.506 183.831 90.248 185.091 90.248V91.616C184.371 91.616 183.861 91.76 183.561 92.048C183.273 92.324 183.129 92.786 183.129 93.434V94.136H185.199V95.486ZM191.411 104.162C190.487 104.162 189.647 103.952 188.891 103.532C188.147 103.112 187.559 102.518 187.127 101.75C186.707 100.97 186.497 100.07 186.497 99.05C186.497 98.042 186.713 97.154 187.145 96.386C187.589 95.606 188.189 95.012 188.945 94.604C189.701 94.184 190.547 93.974 191.483 93.974C192.419 93.974 193.265 94.184 194.021 94.604C194.777 95.012 195.371 95.6 195.803 96.368C196.247 97.136 196.469 98.03 196.469 99.05C196.469 100.07 196.241 100.97 195.785 101.75C195.341 102.518 194.735 103.112 193.967 103.532C193.199 103.952 192.347 104.162 191.411 104.162ZM191.411 102.722C191.999 102.722 192.551 102.584 193.067 102.308C193.583 102.032 193.997 101.618 194.309 101.066C194.633 100.514 194.795 99.842 194.795 99.05C194.795 98.258 194.639 97.586 194.327 97.034C194.015 96.482 193.607 96.074 193.103 95.81C192.599 95.534 192.053 95.396 191.465 95.396C190.865 95.396 190.313 95.534 189.809 95.81C189.317 96.074 188.921 96.482 188.621 97.034C188.321 97.586 188.171 98.258 188.171 99.05C188.171 99.854 188.315 100.532 188.603 101.084C188.903 101.636 189.299 102.05 189.791 102.326C190.283 102.59 190.823 102.722 191.411 102.722ZM200.26 95.738C200.548 95.174 200.956 94.736 201.484 94.424C202.024 94.112 202.678 93.956 203.446 93.956V95.648H203.014C201.178 95.648 200.26 96.644 200.26 98.636V104H198.622V94.136H200.26V95.738ZM217.199 93.956C217.967 93.956 218.651 94.118 219.251 94.442C219.851 94.754 220.325 95.228 220.673 95.864C221.021 96.5 221.195 97.274 221.195 98.186V104H219.575V98.42C219.575 97.436 219.329 96.686 218.837 96.17C218.357 95.642 217.703 95.378 216.875 95.378C216.023 95.378 215.345 95.654 214.841 96.206C214.337 96.746 214.085 97.532 214.085 98.564V104H212.465V98.42C212.465 97.436 212.219 96.686 211.727 96.17C211.247 95.642 210.593 95.378 209.765 95.378C208.913 95.378 208.235 95.654 207.731 96.206C207.227 96.746 206.975 97.532 206.975 98.564V104H205.337V94.136H206.975V95.558C207.299 95.042 207.731 94.646 208.271 94.37C208.823 94.094 209.429 93.956 210.089 93.956C210.917 93.956 211.649 94.142 212.285 94.514C212.921 94.886 213.395 95.432 213.707 96.152C213.983 95.456 214.439 94.916 215.075 94.532C215.711 94.148 216.419 93.956 217.199 93.956ZM223.27 99.032C223.27 98.024 223.474 97.142 223.882 96.386C224.29 95.618 224.848 95.024 225.556 94.604C226.276 94.184 227.074 93.974 227.95 93.974C228.814 93.974 229.564 94.16 230.2 94.532C230.836 94.904 231.31 95.372 231.622 95.936V94.136H233.278V104H231.622V102.164C231.298 102.74 230.812 103.22 230.164 103.604C229.528 103.976 228.784 104.162 227.932 104.162C227.056 104.162 226.264 103.946 225.556 103.514C224.848 103.082 224.29 102.476 223.882 101.696C223.474 100.916 223.27 100.028 223.27 99.032ZM231.622 99.05C231.622 98.306 231.472 97.658 231.172 97.106C230.872 96.554 230.464 96.134 229.948 95.846C229.444 95.546 228.886 95.396 228.274 95.396C227.662 95.396 227.104 95.54 226.6 95.828C226.096 96.116 225.694 96.536 225.394 97.088C225.094 97.64 224.944 98.288 224.944 99.032C224.944 99.788 225.094 100.448 225.394 101.012C225.694 101.564 226.096 101.99 226.6 102.29C227.104 102.578 227.662 102.722 228.274 102.722C228.886 102.722 229.444 102.578 229.948 102.29C230.464 101.99 230.872 101.564 231.172 101.012C231.472 100.448 231.622 99.794 231.622 99.05ZM240.233 99.032C240.233 98.024 240.437 97.142 240.845 96.386C241.253 95.618 241.811 95.024 242.519 94.604C243.239 94.184 244.043 93.974 244.931 93.974C245.699 93.974 246.413 94.154 247.073 94.514C247.733 94.862 248.237 95.324 248.585 95.9V90.68H250.241V104H248.585V102.146C248.261 102.734 247.781 103.22 247.145 103.604C246.509 103.976 245.765 104.162 244.913 104.162C244.037 104.162 243.239 103.946 242.519 103.514C241.811 103.082 241.253 102.476 240.845 101.696C240.437 100.916 240.233 100.028 240.233 99.032ZM248.585 99.05C248.585 98.306 248.435 97.658 248.135 97.106C247.835 96.554 247.427 96.134 246.911 95.846C246.407 95.546 245.849 95.396 245.237 95.396C244.625 95.396 244.067 95.54 243.563 95.828C243.059 96.116 242.657 96.536 242.357 97.088C242.057 97.64 241.907 98.288 241.907 99.032C241.907 99.788 242.057 100.448 242.357 101.012C242.657 101.564 243.059 101.99 243.563 102.29C244.067 102.578 244.625 102.722 245.237 102.722C245.849 102.722 246.407 102.578 246.911 102.29C247.427 101.99 247.835 101.564 248.135 101.012C248.435 100.448 248.585 99.794 248.585 99.05ZM262.009 98.69C262.009 99.002 261.991 99.332 261.955 99.68H254.071C254.131 100.652 254.461 101.414 255.061 101.966C255.673 102.506 256.411 102.776 257.275 102.776C257.983 102.776 258.571 102.614 259.039 102.29C259.519 101.954 259.855 101.51 260.047 100.958H261.811C261.547 101.906 261.019 102.68 260.227 103.28C259.435 103.868 258.451 104.162 257.275 104.162C256.339 104.162 255.499 103.952 254.755 103.532C254.023 103.112 253.447 102.518 253.027 101.75C252.607 100.97 252.397 100.07 252.397 99.05C252.397 98.03 252.601 97.136 253.009 96.368C253.417 95.6 253.987 95.012 254.719 94.604C255.463 94.184 256.315 93.974 257.275 93.974C258.211 93.974 259.039 94.178 259.759 94.586C260.479 94.994 261.031 95.558 261.415 96.278C261.811 96.986 262.009 97.79 262.009 98.69ZM260.317 98.348C260.317 97.724 260.179 97.19 259.903 96.746C259.627 96.29 259.249 95.948 258.769 95.72C258.301 95.48 257.779 95.36 257.203 95.36C256.375 95.36 255.667 95.624 255.079 96.152C254.503 96.68 254.173 97.412 254.089 98.348H260.317ZM122.386 122.69C122.386 123.002 122.368 123.332 122.332 123.68H114.448C114.508 124.652 114.838 125.414 115.438 125.966C116.05 126.506 116.788 126.776 117.652 126.776C118.36 126.776 118.948 126.614 119.416 126.29C119.896 125.954 120.232 125.51 120.424 124.958H122.188C121.924 125.906 121.396 126.68 120.604 127.28C119.812 127.868 118.828 128.162 117.652 128.162C116.716 128.162 115.876 127.952 115.132 127.532C114.4 127.112 113.824 126.518 113.404 125.75C112.984 124.97 112.774 124.07 112.774 123.05C112.774 122.03 112.978 121.136 113.386 120.368C113.794 119.6 114.364 119.012 115.096 118.604C115.84 118.184 116.692 117.974 117.652 117.974C118.588 117.974 119.416 118.178 120.136 118.586C120.856 118.994 121.408 119.558 121.792 120.278C122.188 120.986 122.386 121.79 122.386 122.69ZM120.694 122.348C120.694 121.724 120.556 121.19 120.28 120.746C120.004 120.29 119.626 119.948 119.146 119.72C118.678 119.48 118.156 119.36 117.58 119.36C116.752 119.36 116.044 119.624 115.456 120.152C114.88 120.68 114.55 121.412 114.466 122.348H120.694ZM128.04 128.162C127.284 128.162 126.606 128.036 126.006 127.784C125.406 127.52 124.932 127.16 124.584 126.704C124.236 126.236 124.044 125.702 124.008 125.102H125.7C125.748 125.594 125.976 125.996 126.384 126.308C126.804 126.62 127.35 126.776 128.022 126.776C128.646 126.776 129.138 126.638 129.498 126.362C129.858 126.086 130.038 125.738 130.038 125.318C130.038 124.886 129.846 124.568 129.462 124.364C129.078 124.148 128.484 123.938 127.68 123.734C126.948 123.542 126.348 123.35 125.88 123.158C125.424 122.954 125.028 122.66 124.692 122.276C124.368 121.88 124.206 121.364 124.206 120.728C124.206 120.224 124.356 119.762 124.656 119.342C124.956 118.922 125.382 118.592 125.934 118.352C126.486 118.1 127.116 117.974 127.824 117.974C128.916 117.974 129.798 118.25 130.47 118.802C131.142 119.354 131.502 120.11 131.55 121.07H129.912C129.876 120.554 129.666 120.14 129.282 119.828C128.91 119.516 128.406 119.36 127.77 119.36C127.182 119.36 126.714 119.486 126.366 119.738C126.018 119.99 125.844 120.32 125.844 120.728C125.844 121.052 125.946 121.322 126.15 121.538C126.366 121.742 126.63 121.91 126.942 122.042C127.266 122.162 127.71 122.3 128.274 122.456C128.982 122.648 129.558 122.84 130.002 123.032C130.446 123.212 130.824 123.488 131.136 123.86C131.46 124.232 131.628 124.718 131.64 125.318C131.64 125.858 131.49 126.344 131.19 126.776C130.89 127.208 130.464 127.55 129.912 127.802C129.372 128.042 128.748 128.162 128.04 128.162ZM135.95 119.486V125.3C135.95 125.78 136.052 126.122 136.256 126.326C136.46 126.518 136.814 126.614 137.318 126.614H138.524V128H137.048C136.136 128 135.452 127.79 134.996 127.37C134.54 126.95 134.312 126.26 134.312 125.3V119.486H133.034V118.136H134.312V115.652H135.95V118.136H138.524V119.486H135.95ZM149.257 118.136V128H147.619V126.542C147.307 127.046 146.869 127.442 146.305 127.73C145.753 128.006 145.141 128.144 144.469 128.144C143.701 128.144 143.011 127.988 142.399 127.676C141.787 127.352 141.301 126.872 140.941 126.236C140.593 125.6 140.419 124.826 140.419 123.914V118.136H142.039V123.698C142.039 124.67 142.285 125.42 142.777 125.948C143.269 126.464 143.941 126.722 144.793 126.722C145.669 126.722 146.359 126.452 146.863 125.912C147.367 125.372 147.619 124.586 147.619 123.554V118.136H149.257ZM151.411 123.032C151.411 122.024 151.615 121.142 152.023 120.386C152.431 119.618 152.989 119.024 153.697 118.604C154.417 118.184 155.221 117.974 156.109 117.974C156.877 117.974 157.591 118.154 158.251 118.514C158.911 118.862 159.415 119.324 159.763 119.9V114.68H161.419V128H159.763V126.146C159.439 126.734 158.959 127.22 158.323 127.604C157.687 127.976 156.943 128.162 156.091 128.162C155.215 128.162 154.417 127.946 153.697 127.514C152.989 127.082 152.431 126.476 152.023 125.696C151.615 124.916 151.411 124.028 151.411 123.032ZM159.763 123.05C159.763 122.306 159.613 121.658 159.313 121.106C159.013 120.554 158.605 120.134 158.089 119.846C157.585 119.546 157.027 119.396 156.415 119.396C155.803 119.396 155.245 119.54 154.741 119.828C154.237 120.116 153.835 120.536 153.535 121.088C153.235 121.64 153.085 122.288 153.085 123.032C153.085 123.788 153.235 124.448 153.535 125.012C153.835 125.564 154.237 125.99 154.741 126.29C155.245 126.578 155.803 126.722 156.415 126.722C157.027 126.722 157.585 126.578 158.089 126.29C158.605 125.99 159.013 125.564 159.313 125.012C159.613 124.448 159.763 123.794 159.763 123.05ZM168.489 128.162C167.565 128.162 166.725 127.952 165.969 127.532C165.225 127.112 164.637 126.518 164.205 125.75C163.785 124.97 163.575 124.07 163.575 123.05C163.575 122.042 163.791 121.154 164.223 120.386C164.667 119.606 165.267 119.012 166.023 118.604C166.779 118.184 167.625 117.974 168.561 117.974C169.497 117.974 170.343 118.184 171.099 118.604C171.855 119.012 172.449 119.6 172.881 120.368C173.325 121.136 173.547 122.03 173.547 123.05C173.547 124.07 173.319 124.97 172.863 125.75C172.419 126.518 171.813 127.112 171.045 127.532C170.277 127.952 169.425 128.162 168.489 128.162ZM168.489 126.722C169.077 126.722 169.629 126.584 170.145 126.308C170.661 126.032 171.075 125.618 171.387 125.066C171.711 124.514 171.873 123.842 171.873 123.05C171.873 122.258 171.717 121.586 171.405 121.034C171.093 120.482 170.685 120.074 170.181 119.81C169.677 119.534 169.131 119.396 168.543 119.396C167.943 119.396 167.391 119.534 166.887 119.81C166.395 120.074 165.999 120.482 165.699 121.034C165.399 121.586 165.249 122.258 165.249 123.05C165.249 123.854 165.393 124.532 165.681 125.084C165.981 125.636 166.377 126.05 166.869 126.326C167.361 126.59 167.901 126.722 168.489 126.722ZM179.192 128.162C178.436 128.162 177.758 128.036 177.158 127.784C176.558 127.52 176.084 127.16 175.736 126.704C175.388 126.236 175.196 125.702 175.16 125.102H176.852C176.9 125.594 177.128 125.996 177.536 126.308C177.956 126.62 178.502 126.776 179.174 126.776C179.798 126.776 180.29 126.638 180.65 126.362C181.01 126.086 181.19 125.738 181.19 125.318C181.19 124.886 180.998 124.568 180.614 124.364C180.23 124.148 179.636 123.938 178.832 123.734C178.1 123.542 177.5 123.35 177.032 123.158C176.576 122.954 176.18 122.66 175.844 122.276C175.52 121.88 175.358 121.364 175.358 120.728C175.358 120.224 175.508 119.762 175.808 119.342C176.108 118.922 176.534 118.592 177.086 118.352C177.638 118.1 178.268 117.974 178.976 117.974C180.068 117.974 180.95 118.25 181.622 118.802C182.294 119.354 182.654 120.11 182.702 121.07H181.064C181.028 120.554 180.818 120.14 180.434 119.828C180.062 119.516 179.558 119.36 178.922 119.36C178.334 119.36 177.866 119.486 177.518 119.738C177.17 119.99 176.996 120.32 176.996 120.728C176.996 121.052 177.098 121.322 177.302 121.538C177.518 121.742 177.782 121.91 178.094 122.042C178.418 122.162 178.862 122.3 179.426 122.456C180.134 122.648 180.71 122.84 181.154 123.032C181.598 123.212 181.976 123.488 182.288 123.86C182.612 124.232 182.78 124.718 182.792 125.318C182.792 125.858 182.642 126.344 182.342 126.776C182.042 127.208 181.616 127.55 181.064 127.802C180.524 128.042 179.9 128.162 179.192 128.162ZM194.206 128.162C193.282 128.162 192.442 127.952 191.686 127.532C190.942 127.112 190.354 126.518 189.922 125.75C189.502 124.97 189.292 124.07 189.292 123.05C189.292 122.042 189.508 121.154 189.94 120.386C190.384 119.606 190.984 119.012 191.74 118.604C192.496 118.184 193.342 117.974 194.278 117.974C195.214 117.974 196.06 118.184 196.816 118.604C197.572 119.012 198.166 119.6 198.598 120.368C199.042 121.136 199.264 122.03 199.264 123.05C199.264 124.07 199.036 124.97 198.58 125.75C198.136 126.518 197.53 127.112 196.762 127.532C195.994 127.952 195.142 128.162 194.206 128.162ZM194.206 126.722C194.794 126.722 195.346 126.584 195.862 126.308C196.378 126.032 196.792 125.618 197.104 125.066C197.428 124.514 197.59 123.842 197.59 123.05C197.59 122.258 197.434 121.586 197.122 121.034C196.81 120.482 196.402 120.074 195.898 119.81C195.394 119.534 194.848 119.396 194.26 119.396C193.66 119.396 193.108 119.534 192.604 119.81C192.112 120.074 191.716 120.482 191.416 121.034C191.116 121.586 190.966 122.258 190.966 123.05C190.966 123.854 191.11 124.532 191.398 125.084C191.698 125.636 192.094 126.05 192.586 126.326C193.078 126.59 193.618 126.722 194.206 126.722ZM206.223 117.956C207.423 117.956 208.395 118.322 209.139 119.054C209.883 119.774 210.255 120.818 210.255 122.186V128H208.635V122.42C208.635 121.436 208.389 120.686 207.897 120.17C207.405 119.642 206.733 119.378 205.881 119.378C205.017 119.378 204.327 119.648 203.811 120.188C203.307 120.728 203.055 121.514 203.055 122.546V128H201.417V118.136H203.055V119.54C203.379 119.036 203.817 118.646 204.369 118.37C204.933 118.094 205.551 117.956 206.223 117.956ZM214.569 114.68V128H212.931V114.68H214.569ZM218.207 116.534C217.895 116.534 217.631 116.426 217.415 116.21C217.199 115.994 217.091 115.73 217.091 115.418C217.091 115.106 217.199 114.842 217.415 114.626C217.631 114.41 217.895 114.302 218.207 114.302C218.507 114.302 218.759 114.41 218.963 114.626C219.179 114.842 219.287 115.106 219.287 115.418C219.287 115.73 219.179 115.994 218.963 116.21C218.759 116.426 218.507 116.534 218.207 116.534ZM218.999 118.136V128H217.361V118.136H218.999ZM226.596 117.956C227.796 117.956 228.768 118.322 229.512 119.054C230.256 119.774 230.628 120.818 230.628 122.186V128H229.008V122.42C229.008 121.436 228.762 120.686 228.27 120.17C227.778 119.642 227.106 119.378 226.254 119.378C225.39 119.378 224.7 119.648 224.184 120.188C223.68 120.728 223.428 121.514 223.428 122.546V128H221.79V118.136H223.428V119.54C223.752 119.036 224.19 118.646 224.742 118.37C225.306 118.094 225.924 117.956 226.596 117.956ZM242.304 122.69C242.304 123.002 242.286 123.332 242.25 123.68H234.366C234.426 124.652 234.756 125.414 235.356 125.966C235.968 126.506 236.706 126.776 237.57 126.776C238.278 126.776 238.866 126.614 239.334 126.29C239.814 125.954 240.15 125.51 240.342 124.958H242.106C241.842 125.906 241.314 126.68 240.522 127.28C239.73 127.868 238.746 128.162 237.57 128.162C236.634 128.162 235.794 127.952 235.05 127.532C234.318 127.112 233.742 126.518 233.322 125.75C232.902 124.97 232.692 124.07 232.692 123.05C232.692 122.03 232.896 121.136 233.304 120.368C233.712 119.6 234.282 119.012 235.014 118.604C235.758 118.184 236.61 117.974 237.57 117.974C238.506 117.974 239.334 118.178 240.054 118.586C240.774 118.994 241.326 119.558 241.71 120.278C242.106 120.986 242.304 121.79 242.304 122.69ZM240.612 122.348C240.612 121.724 240.474 121.19 240.198 120.746C239.922 120.29 239.544 119.948 239.064 119.72C238.596 119.48 238.074 119.36 237.498 119.36C236.67 119.36 235.962 119.624 235.374 120.152C234.798 120.68 234.468 121.412 234.384 122.348H240.612ZM244.988 128.108C244.676 128.108 244.412 128 244.196 127.784C243.98 127.568 243.872 127.304 243.872 126.992C243.872 126.68 243.98 126.416 244.196 126.2C244.412 125.984 244.676 125.876 244.988 125.876C245.288 125.876 245.54 125.984 245.744 126.2C245.96 126.416 246.068 126.68 246.068 126.992C246.068 127.304 245.96 127.568 245.744 127.784C245.54 128 245.288 128.108 244.988 128.108Z" fill="#D4C2FF"/>
<path d="M7.53856 22.524C9.13732 22.524 10.4334 21.2207 10.4334 19.613C10.4334 18.0052 9.13732 16.7019 7.53856 16.7019C5.93979 16.7019 4.64374 18.0052 4.64374 19.613C4.64374 21.2207 5.93979 22.524 7.53856 22.524Z" fill="#E5E5E5" fill-opacity="0.16"/>
<path d="M27.7427 22.524C29.3415 22.524 30.6375 21.2207 30.6375 19.613C30.6375 18.0052 29.3415 16.7019 27.7427 16.7019C26.144 16.7019 24.8479 18.0052 24.8479 19.613C24.8479 21.2207 26.144 22.524 27.7427 22.524Z" fill="#E5E5E5" fill-opacity="0.16"/>
<path d="M47.9622 22.524C49.561 22.524 50.8571 21.2207 50.8571 19.613C50.8571 18.0052 49.561 16.7019 47.9622 16.7019C46.3635 16.7019 45.0674 18.0052 45.0674 19.613C45.0674 21.2207 46.3635 22.524 47.9622 22.524Z" fill="#E5E5E5" fill-opacity="0.16"/>
<path d="M7.53892 42.843C9.13769 42.843 10.4338 41.5397 10.4338 39.932C10.4338 38.3243 9.13769 37.0209 7.53892 37.0209C5.94016 37.0209 4.6441 38.3243 4.6441 39.932C4.6441 41.5397 5.94016 42.843 7.53892 42.843Z" fill="#E5E5E5" fill-opacity="0.16"/>
<path d="M27.743 42.843C29.3417 42.843 30.6378 41.5397 30.6378 39.932C30.6378 38.3243 29.3417 37.0209 27.743 37.0209C26.1442 37.0209 24.8481 38.3243 24.8481 39.932C24.8481 41.5397 26.1442 42.843 27.743 42.843Z" fill="#E5E5E5" fill-opacity="0.16"/>
<path d="M47.9622 42.843C49.561 42.843 50.8571 41.5397 50.8571 39.932C50.8571 38.3243 49.561 37.0209 47.9622 37.0209C46.3635 37.0209 45.0674 38.3243 45.0674 39.932C45.0674 41.5397 46.3635 42.843 47.9622 42.843Z" fill="#E5E5E5" fill-opacity="0.16"/>
<path d="M7.53892 63.1774C9.13769 63.1774 10.4338 61.8741 10.4338 60.2663C10.4338 58.6586 9.13769 57.3553 7.53892 57.3553C5.94016 57.3553 4.6441 58.6586 4.6441 60.2663C4.6441 61.8741 5.94016 63.1774 7.53892 63.1774Z" fill="#E5E5E5" fill-opacity="0.16"/>
<path d="M27.743 63.1774C29.3417 63.1774 30.6378 61.8741 30.6378 60.2663C30.6378 58.6586 29.3417 57.3553 27.743 57.3553C26.1442 57.3553 24.8481 58.6586 24.8481 60.2663C24.8481 61.8741 26.1442 63.1774 27.743 63.1774Z" fill="#E5E5E5" fill-opacity="0.16"/>
<path d="M47.9622 63.1774C49.561 63.1774 50.8571 61.8741 50.8571 60.2663C50.8571 58.6586 49.561 57.3553 47.9622 57.3553C46.3635 57.3553 45.0674 58.6586 45.0674 60.2663C45.0674 61.8741 46.3635 63.1774 47.9622 63.1774Z" fill="#E5E5E5" fill-opacity="0.16"/>
<path d="M7.53892 83.496C9.13769 83.496 10.4338 82.1927 10.4338 80.585C10.4338 78.9772 9.13769 77.6739 7.53892 77.6739C5.94016 77.6739 4.6441 78.9772 4.6441 80.585C4.6441 82.1927 5.94016 83.496 7.53892 83.496Z" fill="#E5E5E5" fill-opacity="0.16"/>
<path d="M27.743 83.496C29.3417 83.496 30.6378 82.1927 30.6378 80.585C30.6378 78.9772 29.3417 77.6739 27.743 77.6739C26.1442 77.6739 24.8481 78.9772 24.8481 80.585C24.8481 82.1927 26.1442 83.496 27.743 83.496Z" fill="#E5E5E5" fill-opacity="0.16"/>
<path d="M47.9622 83.496C49.561 83.496 50.8571 82.1927 50.8571 80.585C50.8571 78.9772 49.561 77.6739 47.9622 77.6739C46.3635 77.6739 45.0674 78.9772 45.0674 80.585C45.0674 82.1927 46.3635 83.496 47.9622 83.496Z" fill="#E5E5E5" fill-opacity="0.16"/>
<path d="M890.507 22.5241C892.106 22.5241 893.402 21.2207 893.402 19.613C893.402 18.0053 892.106 16.702 890.507 16.702C888.908 16.702 887.612 18.0053 887.612 19.613C887.612 21.2207 888.908 22.5241 890.507 22.5241Z" fill="#E5E5E5" fill-opacity="0.16"/>
<path d="M890.507 42.8584C892.106 42.8584 893.402 41.5551 893.402 39.9474C893.402 38.3397 892.106 37.0363 890.507 37.0363C888.908 37.0363 887.612 38.3397 887.612 39.9474C887.612 41.5551 888.908 42.8584 890.507 42.8584Z" fill="#E5E5E5" fill-opacity="0.16"/>
<path d="M890.507 63.1775C892.106 63.1775 893.402 61.8742 893.402 60.2664C893.402 58.6587 892.106 57.3554 890.507 57.3554C888.908 57.3554 887.612 58.6587 887.612 60.2664C887.612 61.8742 888.908 63.1775 890.507 63.1775Z" fill="#E5E5E5" fill-opacity="0.16"/>
<path d="M890.507 83.5118C892.106 83.5118 893.402 82.2084 893.402 80.6007C893.402 78.993 892.106 77.6897 890.507 77.6897C888.908 77.6897 887.612 78.993 887.612 80.6007C887.612 82.2084 888.908 83.5118 890.507 83.5118Z" fill="#E5E5E5" fill-opacity="0.16"/>
<path d="M890.507 103.83C892.106 103.83 893.402 102.527 893.402 100.919C893.402 99.3117 892.106 98.0084 890.507 98.0084C888.908 98.0084 887.612 99.3117 887.612 100.919C887.612 102.527 888.908 103.83 890.507 103.83Z" fill="#E5E5E5" fill-opacity="0.16"/>
<path d="M890.507 124.165C892.106 124.165 893.402 122.861 893.402 121.254C893.402 119.646 892.106 118.343 890.507 118.343C888.908 118.343 887.612 119.646 887.612 121.254C887.612 122.861 888.908 124.165 890.507 124.165Z" fill="#E5E5E5" fill-opacity="0.16"/>
<path d="M890.507 144.484C892.106 144.484 893.402 143.181 893.402 141.573C893.402 139.965 892.106 138.662 890.507 138.662C888.908 138.662 887.612 139.965 887.612 141.573C887.612 143.181 888.908 144.484 890.507 144.484Z" fill="#E5E5E5" fill-opacity="0.16"/>
<path d="M870.302 22.5241C871.901 22.5241 873.197 21.2207 873.197 19.613C873.197 18.0053 871.901 16.702 870.302 16.702C868.704 16.702 867.408 18.0053 867.408 19.613C867.408 21.2207 868.704 22.5241 870.302 22.5241Z" fill="#E5E5E5" fill-opacity="0.16"/>
<path d="M870.302 42.8584C871.901 42.8584 873.197 41.5551 873.197 39.9474C873.197 38.3397 871.901 37.0363 870.302 37.0363C868.704 37.0363 867.408 38.3397 867.408 39.9474C867.408 41.5551 868.704 42.8584 870.302 42.8584Z" fill="#E5E5E5" fill-opacity="0.16"/>
<path d="M870.302 63.1775C871.901 63.1775 873.197 61.8742 873.197 60.2664C873.197 58.6587 871.901 57.3554 870.302 57.3554C868.704 57.3554 867.408 58.6587 867.408 60.2664C867.408 61.8742 868.704 63.1775 870.302 63.1775Z" fill="#E5E5E5" fill-opacity="0.16"/>
<path d="M870.302 83.5118C871.901 83.5118 873.197 82.2084 873.197 80.6007C873.197 78.993 871.901 77.6897 870.302 77.6897C868.704 77.6897 867.408 78.993 867.408 80.6007C867.408 82.2084 868.704 83.5118 870.302 83.5118Z" fill="#E5E5E5" fill-opacity="0.16"/>
<path d="M870.302 103.83C871.901 103.83 873.197 102.527 873.197 100.919C873.197 99.3117 871.901 98.0084 870.302 98.0084C868.704 98.0084 867.408 99.3117 867.408 100.919C867.408 102.527 868.704 103.83 870.302 103.83Z" fill="#E5E5E5" fill-opacity="0.16"/>
<path d="M870.302 124.165C871.901 124.165 873.197 122.861 873.197 121.254C873.197 119.646 871.901 118.343 870.302 118.343C868.704 118.343 867.408 119.646 867.408 121.254C867.408 122.861 868.704 124.165 870.302 124.165Z" fill="#E5E5E5" fill-opacity="0.16"/>
<path d="M870.302 144.484C871.901 144.484 873.197 143.181 873.197 141.573C873.197 139.965 871.901 138.662 870.302 138.662C868.704 138.662 867.408 139.965 867.408 141.573C867.408 143.181 868.704 144.484 870.302 144.484Z" fill="#E5E5E5" fill-opacity="0.16"/>
<path d="M850.084 22.525C851.682 22.525 852.978 21.2217 852.978 19.614C852.978 18.0063 851.682 16.7029 850.084 16.7029C848.485 16.7029 847.189 18.0063 847.189 19.614C847.189 21.2217 848.485 22.525 850.084 22.525Z" fill="#E5E5E5" fill-opacity="0.16"/>
<path d="M850.083 42.8584C851.682 42.8584 852.978 41.5551 852.978 39.9474C852.978 38.3397 851.682 37.0363 850.083 37.0363C848.484 37.0363 847.188 38.3397 847.188 39.9474C847.188 41.5551 848.484 42.8584 850.083 42.8584Z" fill="#E5E5E5" fill-opacity="0.16"/>
<path d="M850.083 63.1775C851.682 63.1775 852.978 61.8742 852.978 60.2664C852.978 58.6587 851.682 57.3554 850.083 57.3554C848.484 57.3554 847.188 58.6587 847.188 60.2664C847.188 61.8742 848.484 63.1775 850.083 63.1775Z" fill="#E5E5E5" fill-opacity="0.16"/>
<path d="M850.083 83.5117C851.682 83.5117 852.978 82.2084 852.978 80.6007C852.978 78.993 851.682 77.6897 850.083 77.6897C848.484 77.6897 847.188 78.993 847.188 80.6007C847.188 82.2084 848.484 83.5117 850.083 83.5117Z" fill="#E5E5E5" fill-opacity="0.16"/>
<path d="M850.083 103.83C851.682 103.83 852.978 102.527 852.978 100.919C852.978 99.3117 851.682 98.0084 850.083 98.0084C848.484 98.0084 847.188 99.3117 847.188 100.919C847.188 102.527 848.484 103.83 850.083 103.83Z" fill="#E5E5E5" fill-opacity="0.16"/>
<path d="M850.083 124.165C851.682 124.165 852.978 122.861 852.978 121.254C852.978 119.646 851.682 118.343 850.083 118.343C848.484 118.343 847.188 119.646 847.188 121.254C847.188 122.861 848.484 124.165 850.083 124.165Z" fill="#E5E5E5" fill-opacity="0.16"/>
<path d="M850.083 144.484C851.682 144.484 852.978 143.181 852.978 141.573C852.978 139.965 851.682 138.662 850.083 138.662C848.484 138.662 847.188 139.965 847.188 141.573C847.188 143.181 848.484 144.484 850.083 144.484Z" fill="#E5E5E5" fill-opacity="0.16"/>
</g>
<defs>
<clipPath id="clip0">
<rect width="900" height="160" rx="4" fill="white"/>
</clipPath>
<clipPath id="clip1">
<rect width="84" height="77" fill="white" transform="translate(704 48)"/>
</clipPath>
<clipPath id="clip2">
<rect width="200" height="58.5253" fill="white" transform="translate(112 28)"/>
</clipPath>
</defs>
</svg>
