<svg width="900" height="160" viewBox="0 0 900 160" fill="none" xmlns="http://www.w3.org/2000/svg">
<g clip-path="url(#clip0)">
<rect width="900" height="160" rx="16" fill="white"/>
<rect width="900" height="160" rx="16" fill="#8257E5"/>
<path d="M746.883 21.2309L756.184 30.5834" stroke="#04D361" stroke-width="2" stroke-miterlimit="10" stroke-linecap="round" stroke-linejoin="round"/>
<path d="M756.184 21.2309L746.883 30.5834" stroke="#04D361" stroke-width="2" stroke-miterlimit="10" stroke-linecap="round" stroke-linejoin="round"/>
<path d="M81.5749 132.445V145.671" stroke="#04D361" stroke-width="2" stroke-miterlimit="10" stroke-linecap="round" stroke-linejoin="round"/>
<path d="M88.1675 139.056H75" stroke="#04D361" stroke-width="2" stroke-miterlimit="10" stroke-linecap="round" stroke-linejoin="round"/>
<path d="M510.986 128.443C510.986 132.872 507.413 136.481 502.993 136.481C498.588 136.481 495 132.888 495 128.443C495 124.014 498.573 120.405 502.993 120.405C507.413 120.421 510.986 124.014 510.986 128.443Z" stroke="#04D361" stroke-width="2" stroke-miterlimit="10" stroke-linecap="round" stroke-linejoin="round"/>
<path d="M14.5386 25.0401C16.1373 25.0401 17.4334 23.7368 17.4334 22.1291C17.4334 20.5214 16.1373 19.2181 14.5386 19.2181C12.9398 19.2181 11.6437 20.5214 11.6437 22.1291C11.6437 23.7368 12.9398 25.0401 14.5386 25.0401Z" fill="#8257E5"/>
<path d="M34.7427 25.0401C36.3415 25.0401 37.6375 23.7368 37.6375 22.1291C37.6375 20.5214 36.3415 19.2181 34.7427 19.2181C33.144 19.2181 31.8479 20.5214 31.8479 22.1291C31.8479 23.7368 33.144 25.0401 34.7427 25.0401Z" fill="#8257E5"/>
<path d="M54.9622 25.0401C56.561 25.0401 57.8571 23.7368 57.8571 22.1291C57.8571 20.5214 56.561 19.2181 54.9622 19.2181C53.3635 19.2181 52.0674 20.5214 52.0674 22.1291C52.0674 23.7368 53.3635 25.0401 54.9622 25.0401Z" fill="#8257E5"/>
<path d="M14.5389 45.3592C16.1377 45.3592 17.4338 44.0559 17.4338 42.4481C17.4338 40.8404 16.1377 39.5371 14.5389 39.5371C12.9402 39.5371 11.6441 40.8404 11.6441 42.4481C11.6441 44.0559 12.9402 45.3592 14.5389 45.3592Z" fill="#8257E5"/>
<path d="M34.743 45.3592C36.3417 45.3592 37.6378 44.0559 37.6378 42.4481C37.6378 40.8404 36.3417 39.5371 34.743 39.5371C33.1442 39.5371 31.8481 40.8404 31.8481 42.4481C31.8481 44.0559 33.1442 45.3592 34.743 45.3592Z" fill="#8257E5"/>
<path d="M54.9622 45.3592C56.561 45.3592 57.8571 44.0559 57.8571 42.4481C57.8571 40.8404 56.561 39.5371 54.9622 39.5371C53.3635 39.5371 52.0674 40.8404 52.0674 42.4481C52.0674 44.0559 53.3635 45.3592 54.9622 45.3592Z" fill="#8257E5"/>
<path d="M14.5389 65.6935C16.1377 65.6935 17.4338 64.3902 17.4338 62.7825C17.4338 61.1748 16.1377 59.8714 14.5389 59.8714C12.9402 59.8714 11.6441 61.1748 11.6441 62.7825C11.6441 64.3902 12.9402 65.6935 14.5389 65.6935Z" fill="#8257E5"/>
<path d="M34.743 65.6935C36.3417 65.6935 37.6378 64.3902 37.6378 62.7825C37.6378 61.1748 36.3417 59.8714 34.743 59.8714C33.1442 59.8714 31.8481 61.1748 31.8481 62.7825C31.8481 64.3902 33.1442 65.6935 34.743 65.6935Z" fill="#8257E5"/>
<path d="M54.9622 65.6935C56.561 65.6935 57.8571 64.3902 57.8571 62.7825C57.8571 61.1748 56.561 59.8714 54.9622 59.8714C53.3635 59.8714 52.0674 61.1748 52.0674 62.7825C52.0674 64.3902 53.3635 65.6935 54.9622 65.6935Z" fill="#8257E5"/>
<path d="M14.5389 86.0122C16.1377 86.0122 17.4338 84.7088 17.4338 83.1011C17.4338 81.4934 16.1377 80.19 14.5389 80.19C12.9402 80.19 11.6441 81.4934 11.6441 83.1011C11.6441 84.7088 12.9402 86.0122 14.5389 86.0122Z" fill="#8257E5"/>
<path d="M34.743 86.0122C36.3417 86.0122 37.6378 84.7088 37.6378 83.1011C37.6378 81.4934 36.3417 80.19 34.743 80.19C33.1442 80.19 31.8481 81.4934 31.8481 83.1011C31.8481 84.7088 33.1442 86.0122 34.743 86.0122Z" fill="#8257E5"/>
<path d="M54.9622 86.0122C56.561 86.0122 57.8571 84.7088 57.8571 83.1011C57.8571 81.4934 56.561 80.19 54.9622 80.19C53.3635 80.19 52.0674 81.4934 52.0674 83.1011C52.0674 84.7088 53.3635 86.0122 54.9622 86.0122Z" fill="#8257E5"/>
<path d="M897.507 25.0402C899.106 25.0402 900.402 23.7369 900.402 22.1292C900.402 20.5214 899.106 19.2181 897.507 19.2181C895.908 19.2181 894.612 20.5214 894.612 22.1292C894.612 23.7369 895.908 25.0402 897.507 25.0402Z" fill="#8257E5"/>
<path d="M897.507 45.3745C899.106 45.3745 900.402 44.0712 900.402 42.4635C900.402 40.8558 899.106 39.5525 897.507 39.5525C895.908 39.5525 894.612 40.8558 894.612 42.4635C894.612 44.0712 895.908 45.3745 897.507 45.3745Z" fill="#8257E5"/>
<path d="M897.507 65.6936C899.106 65.6936 900.402 64.3903 900.402 62.7826C900.402 61.1748 899.106 59.8715 897.507 59.8715C895.908 59.8715 894.612 61.1748 894.612 62.7826C894.612 64.3903 895.908 65.6936 897.507 65.6936Z" fill="#8257E5"/>
<path d="M897.507 86.0279C899.106 86.0279 900.402 84.7246 900.402 83.1169C900.402 81.5092 899.106 80.2059 897.507 80.2059C895.908 80.2059 894.612 81.5092 894.612 83.1169C894.612 84.7246 895.908 86.0279 897.507 86.0279Z" fill="#8257E5"/>
<path d="M897.507 106.347C899.106 106.347 900.402 105.043 900.402 103.436C900.402 101.828 899.106 100.525 897.507 100.525C895.908 100.525 894.612 101.828 894.612 103.436C894.612 105.043 895.908 106.347 897.507 106.347Z" fill="#8257E5"/>
<path d="M897.507 126.681C899.106 126.681 900.402 125.378 900.402 123.77C900.402 122.162 899.106 120.859 897.507 120.859C895.908 120.859 894.612 122.162 894.612 123.77C894.612 125.378 895.908 126.681 897.507 126.681Z" fill="#8257E5"/>
<path d="M897.507 147C899.106 147 900.402 145.697 900.402 144.089C900.402 142.481 899.106 141.178 897.507 141.178C895.908 141.178 894.612 142.481 894.612 144.089C894.612 145.697 895.908 147 897.507 147Z" fill="#8257E5"/>
<path d="M877.302 25.0402C878.901 25.0402 880.197 23.7369 880.197 22.1292C880.197 20.5214 878.901 19.2181 877.302 19.2181C875.704 19.2181 874.408 20.5214 874.408 22.1292C874.408 23.7369 875.704 25.0402 877.302 25.0402Z" fill="#8257E5"/>
<path d="M877.302 45.3745C878.901 45.3745 880.197 44.0712 880.197 42.4635C880.197 40.8558 878.901 39.5525 877.302 39.5525C875.704 39.5525 874.408 40.8558 874.408 42.4635C874.408 44.0712 875.704 45.3745 877.302 45.3745Z" fill="#8257E5"/>
<path d="M877.302 65.6936C878.901 65.6936 880.197 64.3903 880.197 62.7826C880.197 61.1748 878.901 59.8715 877.302 59.8715C875.704 59.8715 874.408 61.1748 874.408 62.7826C874.408 64.3903 875.704 65.6936 877.302 65.6936Z" fill="#8257E5"/>
<path d="M877.302 86.0279C878.901 86.0279 880.197 84.7246 880.197 83.1169C880.197 81.5092 878.901 80.2059 877.302 80.2059C875.704 80.2059 874.408 81.5092 874.408 83.1169C874.408 84.7246 875.704 86.0279 877.302 86.0279Z" fill="#8257E5"/>
<path d="M877.302 106.347C878.901 106.347 880.197 105.043 880.197 103.436C880.197 101.828 878.901 100.525 877.302 100.525C875.704 100.525 874.408 101.828 874.408 103.436C874.408 105.043 875.704 106.347 877.302 106.347Z" fill="#8257E5"/>
<path d="M877.302 126.681C878.901 126.681 880.197 125.378 880.197 123.77C880.197 122.162 878.901 120.859 877.302 120.859C875.704 120.859 874.408 122.162 874.408 123.77C874.408 125.378 875.704 126.681 877.302 126.681Z" fill="#8257E5"/>
<path d="M877.302 147C878.901 147 880.197 145.697 880.197 144.089C880.197 142.481 878.901 141.178 877.302 141.178C875.704 141.178 874.408 142.481 874.408 144.089C874.408 145.697 875.704 147 877.302 147Z" fill="#8257E5"/>
<path d="M857.084 25.0412C858.682 25.0412 859.978 23.7379 859.978 22.1301C859.978 20.5224 858.682 19.2191 857.084 19.2191C855.485 19.2191 854.189 20.5224 854.189 22.1301C854.189 23.7379 855.485 25.0412 857.084 25.0412Z" fill="#8257E5"/>
<path d="M857.083 45.3745C858.682 45.3745 859.978 44.0712 859.978 42.4635C859.978 40.8558 858.682 39.5525 857.083 39.5525C855.484 39.5525 854.188 40.8558 854.188 42.4635C854.188 44.0712 855.484 45.3745 857.083 45.3745Z" fill="#8257E5"/>
<path d="M857.083 65.6936C858.682 65.6936 859.978 64.3903 859.978 62.7826C859.978 61.1748 858.682 59.8715 857.083 59.8715C855.484 59.8715 854.188 61.1748 854.188 62.7826C854.188 64.3903 855.484 65.6936 857.083 65.6936Z" fill="#8257E5"/>
<path d="M857.083 86.0279C858.682 86.0279 859.978 84.7246 859.978 83.1169C859.978 81.5092 858.682 80.2058 857.083 80.2058C855.484 80.2058 854.188 81.5092 854.188 83.1169C854.188 84.7246 855.484 86.0279 857.083 86.0279Z" fill="#8257E5"/>
<path d="M857.083 106.347C858.682 106.347 859.978 105.043 859.978 103.436C859.978 101.828 858.682 100.525 857.083 100.525C855.484 100.525 854.188 101.828 854.188 103.436C854.188 105.043 855.484 106.347 857.083 106.347Z" fill="#8257E5"/>
<path d="M857.083 126.681C858.682 126.681 859.978 125.378 859.978 123.77C859.978 122.162 858.682 120.859 857.083 120.859C855.484 120.859 854.188 122.162 854.188 123.77C854.188 125.378 855.484 126.681 857.083 126.681Z" fill="#8257E5"/>
<path d="M857.083 147C858.682 147 859.978 145.697 859.978 144.089C859.978 142.481 858.682 141.178 857.083 141.178C855.484 141.178 854.188 142.481 854.188 144.089C854.188 145.697 855.484 147 857.083 147Z" fill="#8257E5"/>
<g clip-path="url(#clip1)">
<path d="M697.926 40.2903H628.074C627.21 40.2903 626.382 40.6343 625.772 41.2467C625.161 41.8591 624.818 42.6897 624.818 43.5557V113.443C624.818 114.309 625.161 115.139 625.772 115.752C626.382 116.364 627.21 116.708 628.074 116.708H697.926C698.79 116.708 699.618 116.364 700.228 115.752C700.839 115.139 701.182 114.309 701.182 113.443V43.5565C701.182 42.6905 700.839 41.8599 700.228 41.2475C699.618 40.6351 698.79 40.2911 697.926 40.2911V40.2903Z" fill="#202024"/>
<path fill-rule="evenodd" clip-rule="evenodd" d="M676.559 61.606C676.559 62.7573 677.036 63.3314 677.99 63.3314C678.564 63.3314 679.195 63.1492 679.874 62.7851L680.738 65.283C679.694 65.8422 678.71 66.124 677.788 66.124C676.442 66.124 675.401 65.7523 674.666 65.0113C673.933 64.2703 673.566 63.2084 673.566 61.8313V56.9049H671.137V54.4538H673.566V50.343L676.563 49.4351V54.4542H680.943V56.9053H676.563L676.56 61.606H676.559ZM657.028 60.7646H648.402C648.554 61.5668 648.89 62.2058 649.412 62.6827C649.935 63.1597 650.542 63.3983 651.24 63.3983C652.526 63.3983 653.464 62.8984 654.054 61.8986L656.732 62.4655C656.248 63.6168 655.53 64.4864 654.577 65.0786C653.623 65.6684 652.511 65.9631 651.24 65.9631C649.605 65.9631 648.228 65.4039 647.108 64.2836C645.988 63.1633 645.429 61.7245 645.429 59.9676C645.429 58.2107 645.993 56.7699 647.121 55.6419C648.249 54.5139 649.638 53.9487 651.286 53.9487C652.83 53.9487 654.157 54.4897 655.265 55.5717C656.374 56.6538 656.964 58.0438 657.023 59.739V60.7646H657.028ZM649.549 57.1081C649.01 57.4721 648.659 57.9849 648.493 58.6521H653.962C653.78 57.9547 653.447 57.4338 652.963 57.0851C652.478 56.7364 651.92 56.5618 651.284 56.5618C650.664 56.5618 650.087 56.7441 649.549 57.1081ZM642.66 55.6205C643.493 56.505 643.908 57.654 643.908 59.0617V65.9651H640.911V59.6955C640.911 58.8932 640.703 58.249 640.285 57.7604C639.87 57.2758 639.314 57.0347 638.617 57.0347C636.741 57.0347 635.803 58.3369 635.803 60.9404V65.9623H632.807V54.63H635.803V55.6532C636.71 54.7453 637.9 54.2914 639.366 54.2914C640.729 54.2889 641.826 54.7324 642.659 55.6197L642.66 55.6205ZM666.426 65.9651H669.988L665.949 60.4461L669.988 54.6328H666.426L663.725 58.5385L661.047 54.6328H657.484L661.523 60.4461L657.484 65.9651H661.047L663.725 62.2623L666.426 65.9651ZM640.091 69.722V85.9315H643.087V69.722H640.091ZM656.501 80.731H647.877C648.028 81.5332 648.364 82.1722 648.887 82.6491C649.409 83.126 650.017 83.3647 650.714 83.3647C652 83.3647 652.939 82.8648 653.528 81.865L656.207 82.4314C655.723 83.5828 655.005 84.4524 654.051 85.0446C653.098 85.6344 651.986 85.9295 650.714 85.9295C649.079 85.9295 647.703 85.3703 646.583 84.2496C645.462 83.1289 644.904 81.6905 644.904 79.934C644.904 78.1775 645.468 76.7363 646.596 75.6083C647.724 74.4803 649.113 73.9159 650.76 73.9159C652.304 73.9159 653.631 74.4569 654.739 75.5393C655.848 76.6218 656.439 78.0114 656.497 79.7066V80.7322L656.501 80.731ZM649.023 77.0745C648.484 77.4385 648.133 77.9513 647.967 78.6185H653.436C653.254 77.9211 652.921 77.401 652.436 77.0515C651.952 76.702 651.394 76.5282 650.758 76.5282C650.14 76.5307 649.561 76.7129 649.023 77.0745ZM656.617 74.5766L661.814 85.9315H664.039L669.236 74.5766H666.035L662.926 81.5719L659.818 74.5766H656.616H656.617ZM680.949 80.731H672.324C672.475 81.5332 672.811 82.1722 673.334 82.6491C673.857 83.126 674.465 83.3647 675.161 83.3647C676.448 83.3647 677.386 82.8648 677.976 81.865L680.654 82.4314C680.17 83.5828 679.452 84.4524 678.499 85.0446C677.545 85.6344 676.433 85.9295 675.161 85.9295C673.527 85.9295 672.15 85.3703 671.03 84.2496C669.91 83.1289 669.351 81.6905 669.351 79.934C669.351 78.1775 669.915 76.7363 671.043 75.6083C672.171 74.4803 673.56 73.9159 675.208 73.9159C676.751 73.9159 678.078 74.4569 679.187 75.5393C680.295 76.6218 680.886 78.0114 680.945 79.7066V80.7322L680.949 80.731ZM673.47 77.0745C672.932 77.4385 672.581 77.9513 672.414 78.6185H677.883C677.702 77.9211 677.369 77.401 676.884 77.0515C676.399 76.702 675.841 76.5282 675.205 76.5282C674.585 76.5307 674.006 76.7129 673.47 77.0745ZM682.766 69.7224V85.9319H685.762V69.722H682.766V69.7224ZM646.206 104.755H643.707L641.257 98.0769L638.784 104.755H636.288L632.087 93.3997H635.288L637.649 100.19L640.078 93.3997H642.416L644.846 100.213L647.206 93.3997H650.407L646.206 104.755H646.206ZM653.721 99.5541H662.345V98.5285C662.286 96.8333 661.699 95.4432 660.586 94.3612C659.474 93.2792 658.147 92.7377 656.608 92.7377C654.96 92.7377 653.571 93.3021 652.443 94.4309C651.315 95.5597 650.751 97.0002 650.751 98.7566C650.751 100.513 651.314 101.952 652.43 103.072C653.546 104.193 654.926 104.752 656.561 104.752C657.833 104.752 658.945 104.457 659.898 103.867C660.852 103.275 661.57 102.405 662.054 101.254L659.376 100.688C658.786 101.687 657.849 102.187 656.562 102.187C655.865 102.187 655.257 101.949 654.734 101.472C654.211 100.995 653.876 100.356 653.724 99.5537L653.721 99.5541ZM653.81 97.4408C653.977 96.7744 654.328 96.2612 654.866 95.8968C655.402 95.5351 655.981 95.3533 656.601 95.3505C657.236 95.3505 657.796 95.5251 658.28 95.8738C658.764 96.2225 659.097 96.7429 659.279 97.4404H653.811L653.81 97.4408ZM674.852 99.5541H666.228C666.379 100.356 666.714 100.995 667.237 101.472C667.761 101.949 668.368 102.188 669.065 102.188C670.351 102.188 671.289 101.688 671.878 100.688L674.557 101.255C674.072 102.406 673.355 103.275 672.401 103.868C671.448 104.457 670.335 104.753 669.064 104.753C667.429 104.753 666.053 104.193 664.933 103.073C663.813 101.952 663.254 100.514 663.254 98.757C663.254 97.0006 663.818 95.5589 664.946 94.4313C666.074 93.3038 667.463 92.7381 669.111 92.7381C670.654 92.7381 671.981 93.2796 673.09 94.3616C674.198 95.4436 674.789 96.8337 674.848 98.5289V99.5545L674.852 99.5541ZM667.373 95.8976C666.835 96.2616 666.484 96.7748 666.317 97.4416H671.787C671.605 96.7442 671.271 96.2241 670.787 95.875C670.303 95.5259 669.744 95.3517 669.108 95.3517C668.488 95.3545 667.909 95.5364 667.373 95.898V95.8976ZM679.119 104.755V100.462L683.661 104.752H687.746L681.843 99.0743L687.313 93.4199H683.522L679.12 97.8717V88.535H676.123V104.755H679.12H679.119Z" fill="white"/>
<path fill-rule="evenodd" clip-rule="evenodd" d="M629.601 58.4518V55.3411L621.017 58.5376L621 58.5312V61.7241L621.017 61.7176L629.601 64.9141V61.8035L625.196 60.1276L629.601 58.4518ZM696.396 105.329V102.218L700.798 100.544L696.396 98.8695V95.7544L704.977 98.9497L704.997 98.9417V102.137L704.977 102.129L696.396 105.324V105.329ZM687.818 84.7096V87.1841H697.354V84.7096H687.818H687.818ZM629.113 87.6618V85.1865H638.65V87.6618H629.114H629.113ZM692.711 91.3586L687.664 107.568H690.661L695.707 91.3586H692.711Z" fill="#7159C1"/>
<path d="M703.958 54.0067H690.674C689.955 54.0067 689.372 54.5915 689.372 55.3129V62.661C689.372 63.3824 689.955 63.9672 690.674 63.9672H703.958C704.677 63.9672 705.26 63.3824 705.26 62.661V55.3129C705.26 54.5915 704.677 54.0067 703.958 54.0067Z" fill="#7159C1"/>
<path d="M693.731 59.6717H693.17L692.961 60.8682H692.428L692.637 59.6717H691.977V59.1694H692.724L692.87 58.3405H692.195V57.8325H692.96L693.172 56.6231H693.701L693.489 57.8325H694.053L694.266 56.6231H694.799L694.586 57.8325H695.223V58.3405H694.5L694.355 59.1694H695.006V59.6713H694.267L694.058 60.8678H693.526L693.735 59.6713L693.731 59.6717ZM693.257 59.1698H693.818L693.964 58.3409H693.4L693.257 59.1698ZM698.431 59.119C698.431 59.6947 698.312 60.1349 698.074 60.4401C697.837 60.7452 697.489 60.8976 697.031 60.8976C696.578 60.8976 696.232 60.7485 695.993 60.4485C695.754 60.1486 695.631 59.7205 695.625 59.1617V58.3957C695.625 57.8144 695.745 57.373 695.984 57.0718C696.224 56.7707 696.573 56.6203 697.029 56.6203C697.486 56.6203 697.828 56.7695 698.067 57.0694C698.307 57.3693 698.429 57.7951 698.435 58.3534V59.1194L698.431 59.119ZM697.607 58.278C697.607 57.9329 697.559 57.6822 697.464 57.5258C697.37 57.3693 697.225 57.2839 697.025 57.2839C696.831 57.2839 696.687 57.3593 696.595 57.5096C696.502 57.66 696.455 57.8918 696.45 58.2103V59.2181C696.45 59.5576 696.496 59.81 696.587 59.9761C696.678 60.1421 696.828 60.2179 697.032 60.2179C697.235 60.2179 697.379 60.1389 697.468 59.9761C697.557 59.8132 697.604 59.5757 697.608 59.2496V58.2659L697.607 58.278ZM701.835 60.8404H698.989V60.278L700.332 58.8428C700.517 58.6413 700.652 58.4639 700.74 58.3139C700.827 58.1639 700.874 58.0204 700.874 57.885C700.874 57.6995 700.827 57.5552 700.734 57.4504C700.64 57.3456 700.508 57.2903 700.335 57.2903C700.149 57.2903 700.001 57.3548 699.892 57.4846C699.784 57.6144 699.733 57.7809 699.733 57.991H698.906C698.906 57.737 698.966 57.5056 699.085 57.296C699.205 57.0863 699.378 56.9223 699.599 56.8041C699.819 56.686 700.069 56.6239 700.349 56.6239C700.776 56.6239 701.112 56.7267 701.343 56.9327C701.581 57.1343 701.7 57.4294 701.7 57.8051C701.7 58.0067 701.647 58.2204 701.54 58.434C701.434 58.6477 701.251 58.8964 700.993 59.1798L700.049 60.178H701.834V60.8444L701.835 60.8404Z" fill="white"/>
</g>
<g clip-path="url(#clip2)">
<path d="M152.529 29.4756H128.587C122.215 29.4756 119 32.5684 119 38.6943V71.4803C119 72.2833 119.431 72.7777 120.361 72.7777H127.598C128.464 72.7777 129.022 72.2833 129.022 71.4803V70.2355C129.022 67.1988 130.302 65.5437 133.482 65.2246H152.529C159.518 65.2246 162.674 62.195 162.674 55.5747V39.1256C162.674 32.5052 159.518 29.4756 152.529 29.4756ZM152.663 52.7905C152.663 56.3812 151.849 57.1211 147.578 57.1211H137.434C133.166 57.1211 130.442 58.5447 129.018 61.3289V41.1067C129.018 38.3226 129.698 37.5792 133.1 37.5792H147.578C151.849 37.5792 152.663 38.3226 152.663 41.9097V52.7905Z" fill="white"/>
<path d="M185.624 47.6008C180.119 47.6008 177.766 50.385 177.766 55.0873V71.603C177.766 72.3464 177.394 72.7777 176.528 72.7777H169.971C169.105 72.7777 168.673 72.3464 168.673 71.603V41.4153C168.673 40.6719 169.105 40.2371 169.971 40.2371H175.476C176.283 40.2371 176.714 40.6719 176.714 41.4153V46.2859C177.766 42.2674 180.799 40.2231 186.182 40.2231H188.408C189.211 40.2231 189.642 40.6579 189.642 41.4013V46.4262C189.642 47.2291 189.211 47.6008 188.408 47.6008H185.624Z" fill="white"/>
<path d="M228.305 63.9307C228.305 70.0566 225.584 72.7777 219.09 72.7777H203.006C196.571 72.7777 193.787 70.0566 193.787 63.9307V49.0911C193.787 42.9687 196.571 40.2441 203.006 40.2441H219.09C225.584 40.2441 228.305 42.9687 228.305 49.0911V63.9307ZM219.213 51.437C219.213 48.218 218.596 47.6008 214.76 47.6008H207.396C203.5 47.6008 202.88 48.218 202.88 51.437V61.5814C202.88 64.7968 203.5 65.4175 207.396 65.4175H214.76C218.596 65.4175 219.213 64.7968 219.213 61.5814V51.437Z" fill="white"/>
<path d="M237.461 47.6008H234.365C233.558 47.6008 233.127 47.2291 233.127 46.4262V41.4153C233.127 40.6719 233.558 40.2371 234.365 40.2371H237.457V36.2187C237.461 30.0928 240.676 27 247.048 27H254.657C255.523 27 255.895 27.4348 255.895 28.1747V33.1855C255.895 33.992 255.523 34.3602 254.657 34.3602H250.638C247.234 34.3602 246.553 35.1036 246.553 37.8878V40.2371H254.657C255.523 40.2371 255.895 40.6719 255.895 41.4153V46.4262C255.895 47.2291 255.523 47.6008 254.657 47.6008H246.553V71.603C246.553 72.3464 246.122 72.7777 245.256 72.7777H238.699C237.833 72.7777 237.461 72.3464 237.461 71.603V47.6008Z" fill="white"/>
<path d="M262.701 47.6008H259.612C258.809 47.6008 258.377 47.2291 258.377 46.4262V41.4153C258.377 40.6719 258.809 40.2371 259.612 40.2371H262.708V36.2187C262.701 30.0928 265.923 27 272.288 27H279.897C280.763 27 281.135 27.4348 281.135 28.1747V33.1855C281.135 33.992 280.763 34.3602 279.897 34.3602H275.875C272.474 34.3602 271.793 35.1036 271.793 37.8878V40.2371H279.897C280.763 40.2371 281.135 40.6719 281.135 41.4153V46.4262C281.135 47.2291 280.763 47.6008 279.897 47.6008H271.793V71.603C271.793 72.3464 271.359 72.7777 270.492 72.7777H263.935C263.069 72.7777 262.701 72.3464 262.701 71.603V47.6008Z" fill="white"/>
<path d="M308.784 85.3977H295.298C289.238 85.3977 286.64 83.0483 286.64 77.231V76.6138C286.622 76.4478 286.642 76.2799 286.697 76.1225C286.753 75.9651 286.844 75.8223 286.962 75.7047C287.081 75.5872 287.225 75.4978 287.382 75.4433C287.54 75.3889 287.708 75.3706 287.874 75.3901H294.186C295.052 75.3901 295.483 75.8249 295.483 76.6279V76.9364C295.483 78.1742 296.167 78.6687 297.528 78.6687H305.323C309.033 78.6687 309.962 77.7429 309.962 74.5871V64.8284C308.538 67.6126 305.817 69.0362 301.546 69.0362H295.234C288.8 69.0362 285.953 66.3152 285.953 60.1893V41.4153C285.944 41.2532 285.971 41.0912 286.031 40.9404C286.091 40.7896 286.183 40.6536 286.301 40.5417C286.418 40.4297 286.559 40.3446 286.712 40.292C286.866 40.2395 287.029 40.2207 287.191 40.2371H293.811C294.614 40.2371 295.049 40.6719 295.049 41.4153V57.8574C295.049 61.0729 295.729 61.6936 299.565 61.6936H304.267C308.349 61.6936 309.958 60.021 309.958 56.6196V41.4153C309.958 40.6719 310.39 40.2371 311.196 40.2371H317.82C317.978 40.2218 318.138 40.2418 318.288 40.2957C318.438 40.3495 318.574 40.4359 318.686 40.5486C318.798 40.6613 318.884 40.7974 318.938 40.9473C318.991 41.0972 319.01 41.257 318.995 41.4153V75.5619C318.991 82.0525 315.527 85.3977 308.784 85.3977Z" fill="white"/>
</g>
<path d="M124.364 103.126C123.536 103.126 122.792 102.982 122.132 102.694C121.484 102.394 120.974 101.986 120.602 101.47C120.23 100.942 120.038 100.336 120.026 99.652H121.772C121.832 100.24 122.072 100.738 122.492 101.146C122.924 101.542 123.548 101.74 124.364 101.74C125.144 101.74 125.756 101.548 126.2 101.164C126.656 100.768 126.884 100.264 126.884 99.652C126.884 99.172 126.752 98.782 126.488 98.482C126.224 98.182 125.894 97.954 125.498 97.798C125.102 97.642 124.568 97.474 123.896 97.294C123.068 97.078 122.402 96.862 121.898 96.646C121.406 96.43 120.98 96.094 120.62 95.638C120.272 95.17 120.098 94.546 120.098 93.766C120.098 93.082 120.272 92.476 120.62 91.948C120.968 91.42 121.454 91.012 122.078 90.724C122.714 90.436 123.44 90.292 124.256 90.292C125.432 90.292 126.392 90.586 127.136 91.174C127.892 91.762 128.318 92.542 128.414 93.514H126.614C126.554 93.034 126.302 92.614 125.858 92.254C125.414 91.882 124.826 91.696 124.094 91.696C123.41 91.696 122.852 91.876 122.42 92.236C121.988 92.584 121.772 93.076 121.772 93.712C121.772 94.168 121.898 94.54 122.15 94.828C122.414 95.116 122.732 95.338 123.104 95.494C123.488 95.638 124.022 95.806 124.706 95.998C125.534 96.226 126.2 96.454 126.704 96.682C127.208 96.898 127.64 97.24 128 97.708C128.36 98.164 128.54 98.788 128.54 99.58C128.54 100.192 128.378 100.768 128.054 101.308C127.73 101.848 127.25 102.286 126.614 102.622C125.978 102.958 125.228 103.126 124.364 103.126ZM139.698 93.136V103H138.06V101.542C137.748 102.046 137.31 102.442 136.746 102.73C136.194 103.006 135.582 103.144 134.91 103.144C134.142 103.144 133.452 102.988 132.84 102.676C132.228 102.352 131.742 101.872 131.382 101.236C131.034 100.6 130.86 99.826 130.86 98.914V93.136H132.48V98.698C132.48 99.67 132.726 100.42 133.218 100.948C133.71 101.464 134.382 101.722 135.234 101.722C136.11 101.722 136.8 101.452 137.304 100.912C137.808 100.372 138.06 99.586 138.06 98.554V93.136H139.698ZM141.852 98.032C141.852 97.024 142.056 96.142 142.464 95.386C142.872 94.618 143.43 94.024 144.138 93.604C144.858 93.184 145.656 92.974 146.532 92.974C147.396 92.974 148.146 93.16 148.782 93.532C149.418 93.904 149.892 94.372 150.204 94.936V93.136H151.86V103H150.204V101.164C149.88 101.74 149.394 102.22 148.746 102.604C148.11 102.976 147.366 103.162 146.514 103.162C145.638 103.162 144.846 102.946 144.138 102.514C143.43 102.082 142.872 101.476 142.464 100.696C142.056 99.916 141.852 99.028 141.852 98.032ZM150.204 98.05C150.204 97.306 150.054 96.658 149.754 96.106C149.454 95.554 149.046 95.134 148.53 94.846C148.026 94.546 147.468 94.396 146.856 94.396C146.244 94.396 145.686 94.54 145.182 94.828C144.678 95.116 144.276 95.536 143.976 96.088C143.676 96.64 143.526 97.288 143.526 98.032C143.526 98.788 143.676 99.448 143.976 100.012C144.276 100.564 144.678 100.99 145.182 101.29C145.686 101.578 146.244 101.722 146.856 101.722C147.468 101.722 148.026 101.578 148.53 101.29C149.046 100.99 149.454 100.564 149.754 100.012C150.054 99.448 150.204 98.794 150.204 98.05ZM161.065 94.954C161.389 94.39 161.869 93.922 162.505 93.55C163.153 93.166 163.903 92.974 164.755 92.974C165.631 92.974 166.423 93.184 167.131 93.604C167.851 94.024 168.415 94.618 168.823 95.386C169.231 96.142 169.435 97.024 169.435 98.032C169.435 99.028 169.231 99.916 168.823 100.696C168.415 101.476 167.851 102.082 167.131 102.514C166.423 102.946 165.631 103.162 164.755 103.162C163.915 103.162 163.171 102.976 162.523 102.604C161.887 102.22 161.401 101.746 161.065 101.182V107.68H159.427V93.136H161.065V94.954ZM167.761 98.032C167.761 97.288 167.611 96.64 167.311 96.088C167.011 95.536 166.603 95.116 166.087 94.828C165.583 94.54 165.025 94.396 164.413 94.396C163.813 94.396 163.255 94.546 162.739 94.846C162.235 95.134 161.827 95.56 161.515 96.124C161.215 96.676 161.065 97.318 161.065 98.05C161.065 98.794 161.215 99.448 161.515 100.012C161.827 100.564 162.235 100.99 162.739 101.29C163.255 101.578 163.813 101.722 164.413 101.722C165.025 101.722 165.583 101.578 166.087 101.29C166.603 100.99 167.011 100.564 167.311 100.012C167.611 99.448 167.761 98.788 167.761 98.032ZM173.229 89.68V103H171.591V89.68H173.229ZM175.409 98.032C175.409 97.024 175.613 96.142 176.021 95.386C176.429 94.618 176.987 94.024 177.695 93.604C178.415 93.184 179.213 92.974 180.089 92.974C180.953 92.974 181.703 93.16 182.339 93.532C182.975 93.904 183.449 94.372 183.761 94.936V93.136H185.417V103H183.761V101.164C183.437 101.74 182.951 102.22 182.303 102.604C181.667 102.976 180.923 103.162 180.071 103.162C179.195 103.162 178.403 102.946 177.695 102.514C176.987 102.082 176.429 101.476 176.021 100.696C175.613 99.916 175.409 99.028 175.409 98.032ZM183.761 98.05C183.761 97.306 183.611 96.658 183.311 96.106C183.011 95.554 182.603 95.134 182.087 94.846C181.583 94.546 181.025 94.396 180.413 94.396C179.801 94.396 179.243 94.54 178.739 94.828C178.235 95.116 177.833 95.536 177.533 96.088C177.233 96.64 177.083 97.288 177.083 98.032C177.083 98.788 177.233 99.448 177.533 100.012C177.833 100.564 178.235 100.99 178.739 101.29C179.243 101.578 179.801 101.722 180.413 101.722C181.025 101.722 181.583 101.578 182.087 101.29C182.603 100.99 183.011 100.564 183.311 100.012C183.611 99.448 183.761 98.794 183.761 98.05ZM192.199 94.486H190.129V103H188.491V94.486H187.213V93.136H188.491V92.434C188.491 91.33 188.773 90.526 189.337 90.022C189.913 89.506 190.831 89.248 192.091 89.248V90.616C191.371 90.616 190.861 90.76 190.561 91.048C190.273 91.324 190.129 91.786 190.129 92.434V93.136H192.199V94.486ZM198.411 103.162C197.487 103.162 196.647 102.952 195.891 102.532C195.147 102.112 194.559 101.518 194.127 100.75C193.707 99.97 193.497 99.07 193.497 98.05C193.497 97.042 193.713 96.154 194.145 95.386C194.589 94.606 195.189 94.012 195.945 93.604C196.701 93.184 197.547 92.974 198.483 92.974C199.419 92.974 200.265 93.184 201.021 93.604C201.777 94.012 202.371 94.6 202.803 95.368C203.247 96.136 203.469 97.03 203.469 98.05C203.469 99.07 203.241 99.97 202.785 100.75C202.341 101.518 201.735 102.112 200.967 102.532C200.199 102.952 199.347 103.162 198.411 103.162ZM198.411 101.722C198.999 101.722 199.551 101.584 200.067 101.308C200.583 101.032 200.997 100.618 201.309 100.066C201.633 99.514 201.795 98.842 201.795 98.05C201.795 97.258 201.639 96.586 201.327 96.034C201.015 95.482 200.607 95.074 200.103 94.81C199.599 94.534 199.053 94.396 198.465 94.396C197.865 94.396 197.313 94.534 196.809 94.81C196.317 95.074 195.921 95.482 195.621 96.034C195.321 96.586 195.171 97.258 195.171 98.05C195.171 98.854 195.315 99.532 195.603 100.084C195.903 100.636 196.299 101.05 196.791 101.326C197.283 101.59 197.823 101.722 198.411 101.722ZM207.26 94.738C207.548 94.174 207.956 93.736 208.484 93.424C209.024 93.112 209.678 92.956 210.446 92.956V94.648H210.014C208.178 94.648 207.26 95.644 207.26 97.636V103H205.622V93.136H207.26V94.738ZM224.199 92.956C224.967 92.956 225.651 93.118 226.251 93.442C226.851 93.754 227.325 94.228 227.673 94.864C228.021 95.5 228.195 96.274 228.195 97.186V103H226.575V97.42C226.575 96.436 226.329 95.686 225.837 95.17C225.357 94.642 224.703 94.378 223.875 94.378C223.023 94.378 222.345 94.654 221.841 95.206C221.337 95.746 221.085 96.532 221.085 97.564V103H219.465V97.42C219.465 96.436 219.219 95.686 218.727 95.17C218.247 94.642 217.593 94.378 216.765 94.378C215.913 94.378 215.235 94.654 214.731 95.206C214.227 95.746 213.975 96.532 213.975 97.564V103H212.337V93.136H213.975V94.558C214.299 94.042 214.731 93.646 215.271 93.37C215.823 93.094 216.429 92.956 217.089 92.956C217.917 92.956 218.649 93.142 219.285 93.514C219.921 93.886 220.395 94.432 220.707 95.152C220.983 94.456 221.439 93.916 222.075 93.532C222.711 93.148 223.419 92.956 224.199 92.956ZM230.27 98.032C230.27 97.024 230.474 96.142 230.882 95.386C231.29 94.618 231.848 94.024 232.556 93.604C233.276 93.184 234.074 92.974 234.95 92.974C235.814 92.974 236.564 93.16 237.2 93.532C237.836 93.904 238.31 94.372 238.622 94.936V93.136H240.278V103H238.622V101.164C238.298 101.74 237.812 102.22 237.164 102.604C236.528 102.976 235.784 103.162 234.932 103.162C234.056 103.162 233.264 102.946 232.556 102.514C231.848 102.082 231.29 101.476 230.882 100.696C230.474 99.916 230.27 99.028 230.27 98.032ZM238.622 98.05C238.622 97.306 238.472 96.658 238.172 96.106C237.872 95.554 237.464 95.134 236.948 94.846C236.444 94.546 235.886 94.396 235.274 94.396C234.662 94.396 234.104 94.54 233.6 94.828C233.096 95.116 232.694 95.536 232.394 96.088C232.094 96.64 231.944 97.288 231.944 98.032C231.944 98.788 232.094 99.448 232.394 100.012C232.694 100.564 233.096 100.99 233.6 101.29C234.104 101.578 234.662 101.722 235.274 101.722C235.886 101.722 236.444 101.578 236.948 101.29C237.464 100.99 237.872 100.564 238.172 100.012C238.472 99.448 238.622 98.794 238.622 98.05ZM247.233 98.032C247.233 97.024 247.437 96.142 247.845 95.386C248.253 94.618 248.811 94.024 249.519 93.604C250.239 93.184 251.043 92.974 251.931 92.974C252.699 92.974 253.413 93.154 254.073 93.514C254.733 93.862 255.237 94.324 255.585 94.9V89.68H257.241V103H255.585V101.146C255.261 101.734 254.781 102.22 254.145 102.604C253.509 102.976 252.765 103.162 251.913 103.162C251.037 103.162 250.239 102.946 249.519 102.514C248.811 102.082 248.253 101.476 247.845 100.696C247.437 99.916 247.233 99.028 247.233 98.032ZM255.585 98.05C255.585 97.306 255.435 96.658 255.135 96.106C254.835 95.554 254.427 95.134 253.911 94.846C253.407 94.546 252.849 94.396 252.237 94.396C251.625 94.396 251.067 94.54 250.563 94.828C250.059 95.116 249.657 95.536 249.357 96.088C249.057 96.64 248.907 97.288 248.907 98.032C248.907 98.788 249.057 99.448 249.357 100.012C249.657 100.564 250.059 100.99 250.563 101.29C251.067 101.578 251.625 101.722 252.237 101.722C252.849 101.722 253.407 101.578 253.911 101.29C254.427 100.99 254.835 100.564 255.135 100.012C255.435 99.448 255.585 98.794 255.585 98.05ZM269.009 97.69C269.009 98.002 268.991 98.332 268.955 98.68H261.071C261.131 99.652 261.461 100.414 262.061 100.966C262.673 101.506 263.411 101.776 264.275 101.776C264.983 101.776 265.571 101.614 266.039 101.29C266.519 100.954 266.855 100.51 267.047 99.958H268.811C268.547 100.906 268.019 101.68 267.227 102.28C266.435 102.868 265.451 103.162 264.275 103.162C263.339 103.162 262.499 102.952 261.755 102.532C261.023 102.112 260.447 101.518 260.027 100.75C259.607 99.97 259.397 99.07 259.397 98.05C259.397 97.03 259.601 96.136 260.009 95.368C260.417 94.6 260.987 94.012 261.719 93.604C262.463 93.184 263.315 92.974 264.275 92.974C265.211 92.974 266.039 93.178 266.759 93.586C267.479 93.994 268.031 94.558 268.415 95.278C268.811 95.986 269.009 96.79 269.009 97.69ZM267.317 97.348C267.317 96.724 267.179 96.19 266.903 95.746C266.627 95.29 266.249 94.948 265.769 94.72C265.301 94.48 264.779 94.36 264.203 94.36C263.375 94.36 262.667 94.624 262.079 95.152C261.503 95.68 261.173 96.412 261.089 97.348H267.317ZM129.386 121.69C129.386 122.002 129.368 122.332 129.332 122.68H121.448C121.508 123.652 121.838 124.414 122.438 124.966C123.05 125.506 123.788 125.776 124.652 125.776C125.36 125.776 125.948 125.614 126.416 125.29C126.896 124.954 127.232 124.51 127.424 123.958H129.188C128.924 124.906 128.396 125.68 127.604 126.28C126.812 126.868 125.828 127.162 124.652 127.162C123.716 127.162 122.876 126.952 122.132 126.532C121.4 126.112 120.824 125.518 120.404 124.75C119.984 123.97 119.774 123.07 119.774 122.05C119.774 121.03 119.978 120.136 120.386 119.368C120.794 118.6 121.364 118.012 122.096 117.604C122.84 117.184 123.692 116.974 124.652 116.974C125.588 116.974 126.416 117.178 127.136 117.586C127.856 117.994 128.408 118.558 128.792 119.278C129.188 119.986 129.386 120.79 129.386 121.69ZM127.694 121.348C127.694 120.724 127.556 120.19 127.28 119.746C127.004 119.29 126.626 118.948 126.146 118.72C125.678 118.48 125.156 118.36 124.58 118.36C123.752 118.36 123.044 118.624 122.456 119.152C121.88 119.68 121.55 120.412 121.466 121.348H127.694ZM135.04 127.162C134.284 127.162 133.606 127.036 133.006 126.784C132.406 126.52 131.932 126.16 131.584 125.704C131.236 125.236 131.044 124.702 131.008 124.102H132.7C132.748 124.594 132.976 124.996 133.384 125.308C133.804 125.62 134.35 125.776 135.022 125.776C135.646 125.776 136.138 125.638 136.498 125.362C136.858 125.086 137.038 124.738 137.038 124.318C137.038 123.886 136.846 123.568 136.462 123.364C136.078 123.148 135.484 122.938 134.68 122.734C133.948 122.542 133.348 122.35 132.88 122.158C132.424 121.954 132.028 121.66 131.692 121.276C131.368 120.88 131.206 120.364 131.206 119.728C131.206 119.224 131.356 118.762 131.656 118.342C131.956 117.922 132.382 117.592 132.934 117.352C133.486 117.1 134.116 116.974 134.824 116.974C135.916 116.974 136.798 117.25 137.47 117.802C138.142 118.354 138.502 119.11 138.55 120.07H136.912C136.876 119.554 136.666 119.14 136.282 118.828C135.91 118.516 135.406 118.36 134.77 118.36C134.182 118.36 133.714 118.486 133.366 118.738C133.018 118.99 132.844 119.32 132.844 119.728C132.844 120.052 132.946 120.322 133.15 120.538C133.366 120.742 133.63 120.91 133.942 121.042C134.266 121.162 134.71 121.3 135.274 121.456C135.982 121.648 136.558 121.84 137.002 122.032C137.446 122.212 137.824 122.488 138.136 122.86C138.46 123.232 138.628 123.718 138.64 124.318C138.64 124.858 138.49 125.344 138.19 125.776C137.89 126.208 137.464 126.55 136.912 126.802C136.372 127.042 135.748 127.162 135.04 127.162ZM142.95 118.486V124.3C142.95 124.78 143.052 125.122 143.256 125.326C143.46 125.518 143.814 125.614 144.318 125.614H145.524V127H144.048C143.136 127 142.452 126.79 141.996 126.37C141.54 125.95 141.312 125.26 141.312 124.3V118.486H140.034V117.136H141.312V114.652H142.95V117.136H145.524V118.486H142.95ZM156.257 117.136V127H154.619V125.542C154.307 126.046 153.869 126.442 153.305 126.73C152.753 127.006 152.141 127.144 151.469 127.144C150.701 127.144 150.011 126.988 149.399 126.676C148.787 126.352 148.301 125.872 147.941 125.236C147.593 124.6 147.419 123.826 147.419 122.914V117.136H149.039V122.698C149.039 123.67 149.285 124.42 149.777 124.948C150.269 125.464 150.941 125.722 151.793 125.722C152.669 125.722 153.359 125.452 153.863 124.912C154.367 124.372 154.619 123.586 154.619 122.554V117.136H156.257ZM158.411 122.032C158.411 121.024 158.615 120.142 159.023 119.386C159.431 118.618 159.989 118.024 160.697 117.604C161.417 117.184 162.221 116.974 163.109 116.974C163.877 116.974 164.591 117.154 165.251 117.514C165.911 117.862 166.415 118.324 166.763 118.9V113.68H168.419V127H166.763V125.146C166.439 125.734 165.959 126.22 165.323 126.604C164.687 126.976 163.943 127.162 163.091 127.162C162.215 127.162 161.417 126.946 160.697 126.514C159.989 126.082 159.431 125.476 159.023 124.696C158.615 123.916 158.411 123.028 158.411 122.032ZM166.763 122.05C166.763 121.306 166.613 120.658 166.313 120.106C166.013 119.554 165.605 119.134 165.089 118.846C164.585 118.546 164.027 118.396 163.415 118.396C162.803 118.396 162.245 118.54 161.741 118.828C161.237 119.116 160.835 119.536 160.535 120.088C160.235 120.64 160.085 121.288 160.085 122.032C160.085 122.788 160.235 123.448 160.535 124.012C160.835 124.564 161.237 124.99 161.741 125.29C162.245 125.578 162.803 125.722 163.415 125.722C164.027 125.722 164.585 125.578 165.089 125.29C165.605 124.99 166.013 124.564 166.313 124.012C166.613 123.448 166.763 122.794 166.763 122.05ZM175.489 127.162C174.565 127.162 173.725 126.952 172.969 126.532C172.225 126.112 171.637 125.518 171.205 124.75C170.785 123.97 170.575 123.07 170.575 122.05C170.575 121.042 170.791 120.154 171.223 119.386C171.667 118.606 172.267 118.012 173.023 117.604C173.779 117.184 174.625 116.974 175.561 116.974C176.497 116.974 177.343 117.184 178.099 117.604C178.855 118.012 179.449 118.6 179.881 119.368C180.325 120.136 180.547 121.03 180.547 122.05C180.547 123.07 180.319 123.97 179.863 124.75C179.419 125.518 178.813 126.112 178.045 126.532C177.277 126.952 176.425 127.162 175.489 127.162ZM175.489 125.722C176.077 125.722 176.629 125.584 177.145 125.308C177.661 125.032 178.075 124.618 178.387 124.066C178.711 123.514 178.873 122.842 178.873 122.05C178.873 121.258 178.717 120.586 178.405 120.034C178.093 119.482 177.685 119.074 177.181 118.81C176.677 118.534 176.131 118.396 175.543 118.396C174.943 118.396 174.391 118.534 173.887 118.81C173.395 119.074 172.999 119.482 172.699 120.034C172.399 120.586 172.249 121.258 172.249 122.05C172.249 122.854 172.393 123.532 172.681 124.084C172.981 124.636 173.377 125.05 173.869 125.326C174.361 125.59 174.901 125.722 175.489 125.722ZM186.192 127.162C185.436 127.162 184.758 127.036 184.158 126.784C183.558 126.52 183.084 126.16 182.736 125.704C182.388 125.236 182.196 124.702 182.16 124.102H183.852C183.9 124.594 184.128 124.996 184.536 125.308C184.956 125.62 185.502 125.776 186.174 125.776C186.798 125.776 187.29 125.638 187.65 125.362C188.01 125.086 188.19 124.738 188.19 124.318C188.19 123.886 187.998 123.568 187.614 123.364C187.23 123.148 186.636 122.938 185.832 122.734C185.1 122.542 184.5 122.35 184.032 122.158C183.576 121.954 183.18 121.66 182.844 121.276C182.52 120.88 182.358 120.364 182.358 119.728C182.358 119.224 182.508 118.762 182.808 118.342C183.108 117.922 183.534 117.592 184.086 117.352C184.638 117.1 185.268 116.974 185.976 116.974C187.068 116.974 187.95 117.25 188.622 117.802C189.294 118.354 189.654 119.11 189.702 120.07H188.064C188.028 119.554 187.818 119.14 187.434 118.828C187.062 118.516 186.558 118.36 185.922 118.36C185.334 118.36 184.866 118.486 184.518 118.738C184.17 118.99 183.996 119.32 183.996 119.728C183.996 120.052 184.098 120.322 184.302 120.538C184.518 120.742 184.782 120.91 185.094 121.042C185.418 121.162 185.862 121.3 186.426 121.456C187.134 121.648 187.71 121.84 188.154 122.032C188.598 122.212 188.976 122.488 189.288 122.86C189.612 123.232 189.78 123.718 189.792 124.318C189.792 124.858 189.642 125.344 189.342 125.776C189.042 126.208 188.616 126.55 188.064 126.802C187.524 127.042 186.9 127.162 186.192 127.162ZM201.206 127.162C200.282 127.162 199.442 126.952 198.686 126.532C197.942 126.112 197.354 125.518 196.922 124.75C196.502 123.97 196.292 123.07 196.292 122.05C196.292 121.042 196.508 120.154 196.94 119.386C197.384 118.606 197.984 118.012 198.74 117.604C199.496 117.184 200.342 116.974 201.278 116.974C202.214 116.974 203.06 117.184 203.816 117.604C204.572 118.012 205.166 118.6 205.598 119.368C206.042 120.136 206.264 121.03 206.264 122.05C206.264 123.07 206.036 123.97 205.58 124.75C205.136 125.518 204.53 126.112 203.762 126.532C202.994 126.952 202.142 127.162 201.206 127.162ZM201.206 125.722C201.794 125.722 202.346 125.584 202.862 125.308C203.378 125.032 203.792 124.618 204.104 124.066C204.428 123.514 204.59 122.842 204.59 122.05C204.59 121.258 204.434 120.586 204.122 120.034C203.81 119.482 203.402 119.074 202.898 118.81C202.394 118.534 201.848 118.396 201.26 118.396C200.66 118.396 200.108 118.534 199.604 118.81C199.112 119.074 198.716 119.482 198.416 120.034C198.116 120.586 197.966 121.258 197.966 122.05C197.966 122.854 198.11 123.532 198.398 124.084C198.698 124.636 199.094 125.05 199.586 125.326C200.078 125.59 200.618 125.722 201.206 125.722ZM213.223 116.956C214.423 116.956 215.395 117.322 216.139 118.054C216.883 118.774 217.255 119.818 217.255 121.186V127H215.635V121.42C215.635 120.436 215.389 119.686 214.897 119.17C214.405 118.642 213.733 118.378 212.881 118.378C212.017 118.378 211.327 118.648 210.811 119.188C210.307 119.728 210.055 120.514 210.055 121.546V127H208.417V117.136H210.055V118.54C210.379 118.036 210.817 117.646 211.369 117.37C211.933 117.094 212.551 116.956 213.223 116.956ZM221.569 113.68V127H219.931V113.68H221.569ZM225.207 115.534C224.895 115.534 224.631 115.426 224.415 115.21C224.199 114.994 224.091 114.73 224.091 114.418C224.091 114.106 224.199 113.842 224.415 113.626C224.631 113.41 224.895 113.302 225.207 113.302C225.507 113.302 225.759 113.41 225.963 113.626C226.179 113.842 226.287 114.106 226.287 114.418C226.287 114.73 226.179 114.994 225.963 115.21C225.759 115.426 225.507 115.534 225.207 115.534ZM225.999 117.136V127H224.361V117.136H225.999ZM233.596 116.956C234.796 116.956 235.768 117.322 236.512 118.054C237.256 118.774 237.628 119.818 237.628 121.186V127H236.008V121.42C236.008 120.436 235.762 119.686 235.27 119.17C234.778 118.642 234.106 118.378 233.254 118.378C232.39 118.378 231.7 118.648 231.184 119.188C230.68 119.728 230.428 120.514 230.428 121.546V127H228.79V117.136H230.428V118.54C230.752 118.036 231.19 117.646 231.742 117.37C232.306 117.094 232.924 116.956 233.596 116.956ZM249.304 121.69C249.304 122.002 249.286 122.332 249.25 122.68H241.366C241.426 123.652 241.756 124.414 242.356 124.966C242.968 125.506 243.706 125.776 244.57 125.776C245.278 125.776 245.866 125.614 246.334 125.29C246.814 124.954 247.15 124.51 247.342 123.958H249.106C248.842 124.906 248.314 125.68 247.522 126.28C246.73 126.868 245.746 127.162 244.57 127.162C243.634 127.162 242.794 126.952 242.05 126.532C241.318 126.112 240.742 125.518 240.322 124.75C239.902 123.97 239.692 123.07 239.692 122.05C239.692 121.03 239.896 120.136 240.304 119.368C240.712 118.6 241.282 118.012 242.014 117.604C242.758 117.184 243.61 116.974 244.57 116.974C245.506 116.974 246.334 117.178 247.054 117.586C247.774 117.994 248.326 118.558 248.71 119.278C249.106 119.986 249.304 120.79 249.304 121.69ZM247.612 121.348C247.612 120.724 247.474 120.19 247.198 119.746C246.922 119.29 246.544 118.948 246.064 118.72C245.596 118.48 245.074 118.36 244.498 118.36C243.67 118.36 242.962 118.624 242.374 119.152C241.798 119.68 241.468 120.412 241.384 121.348H247.612ZM251.988 127.108C251.676 127.108 251.412 127 251.196 126.784C250.98 126.568 250.872 126.304 250.872 125.992C250.872 125.68 250.98 125.416 251.196 125.2C251.412 124.984 251.676 124.876 251.988 124.876C252.288 124.876 252.54 124.984 252.744 125.2C252.96 125.416 253.068 125.68 253.068 125.992C253.068 126.304 252.96 126.568 252.744 126.784C252.54 127 252.288 127.108 251.988 127.108Z" fill="#D4C2FF"/>
<path d="M7.53856 22.524C9.13732 22.524 10.4334 21.2207 10.4334 19.613C10.4334 18.0052 9.13732 16.7019 7.53856 16.7019C5.93979 16.7019 4.64374 18.0052 4.64374 19.613C4.64374 21.2207 5.93979 22.524 7.53856 22.524Z" fill="#E5E5E5" fill-opacity="0.16"/>
<path d="M27.7427 22.524C29.3415 22.524 30.6375 21.2207 30.6375 19.613C30.6375 18.0052 29.3415 16.7019 27.7427 16.7019C26.144 16.7019 24.8479 18.0052 24.8479 19.613C24.8479 21.2207 26.144 22.524 27.7427 22.524Z" fill="#E5E5E5" fill-opacity="0.16"/>
<path d="M47.9622 22.524C49.561 22.524 50.8571 21.2207 50.8571 19.613C50.8571 18.0052 49.561 16.7019 47.9622 16.7019C46.3635 16.7019 45.0674 18.0052 45.0674 19.613C45.0674 21.2207 46.3635 22.524 47.9622 22.524Z" fill="#E5E5E5" fill-opacity="0.16"/>
<path d="M7.53892 42.843C9.13769 42.843 10.4338 41.5397 10.4338 39.932C10.4338 38.3243 9.13769 37.0209 7.53892 37.0209C5.94016 37.0209 4.6441 38.3243 4.6441 39.932C4.6441 41.5397 5.94016 42.843 7.53892 42.843Z" fill="#E5E5E5" fill-opacity="0.16"/>
<path d="M27.743 42.843C29.3417 42.843 30.6378 41.5397 30.6378 39.932C30.6378 38.3243 29.3417 37.0209 27.743 37.0209C26.1442 37.0209 24.8481 38.3243 24.8481 39.932C24.8481 41.5397 26.1442 42.843 27.743 42.843Z" fill="#E5E5E5" fill-opacity="0.16"/>
<path d="M47.9622 42.843C49.561 42.843 50.8571 41.5397 50.8571 39.932C50.8571 38.3243 49.561 37.0209 47.9622 37.0209C46.3635 37.0209 45.0674 38.3243 45.0674 39.932C45.0674 41.5397 46.3635 42.843 47.9622 42.843Z" fill="#E5E5E5" fill-opacity="0.16"/>
<path d="M7.53892 63.1774C9.13769 63.1774 10.4338 61.8741 10.4338 60.2663C10.4338 58.6586 9.13769 57.3553 7.53892 57.3553C5.94016 57.3553 4.6441 58.6586 4.6441 60.2663C4.6441 61.8741 5.94016 63.1774 7.53892 63.1774Z" fill="#E5E5E5" fill-opacity="0.16"/>
<path d="M27.743 63.1774C29.3417 63.1774 30.6378 61.8741 30.6378 60.2663C30.6378 58.6586 29.3417 57.3553 27.743 57.3553C26.1442 57.3553 24.8481 58.6586 24.8481 60.2663C24.8481 61.8741 26.1442 63.1774 27.743 63.1774Z" fill="#E5E5E5" fill-opacity="0.16"/>
<path d="M47.9622 63.1774C49.561 63.1774 50.8571 61.8741 50.8571 60.2663C50.8571 58.6586 49.561 57.3553 47.9622 57.3553C46.3635 57.3553 45.0674 58.6586 45.0674 60.2663C45.0674 61.8741 46.3635 63.1774 47.9622 63.1774Z" fill="#E5E5E5" fill-opacity="0.16"/>
<path d="M7.53892 83.496C9.13769 83.496 10.4338 82.1927 10.4338 80.585C10.4338 78.9772 9.13769 77.6739 7.53892 77.6739C5.94016 77.6739 4.6441 78.9772 4.6441 80.585C4.6441 82.1927 5.94016 83.496 7.53892 83.496Z" fill="#E5E5E5" fill-opacity="0.16"/>
<path d="M27.743 83.496C29.3417 83.496 30.6378 82.1927 30.6378 80.585C30.6378 78.9772 29.3417 77.6739 27.743 77.6739C26.1442 77.6739 24.8481 78.9772 24.8481 80.585C24.8481 82.1927 26.1442 83.496 27.743 83.496Z" fill="#E5E5E5" fill-opacity="0.16"/>
<path d="M47.9622 83.496C49.561 83.496 50.8571 82.1927 50.8571 80.585C50.8571 78.9772 49.561 77.6739 47.9622 77.6739C46.3635 77.6739 45.0674 78.9772 45.0674 80.585C45.0674 82.1927 46.3635 83.496 47.9622 83.496Z" fill="#E5E5E5" fill-opacity="0.16"/>
<path d="M890.507 22.5241C892.106 22.5241 893.402 21.2207 893.402 19.613C893.402 18.0053 892.106 16.702 890.507 16.702C888.908 16.702 887.612 18.0053 887.612 19.613C887.612 21.2207 888.908 22.5241 890.507 22.5241Z" fill="#E5E5E5" fill-opacity="0.16"/>
<path d="M890.507 42.8584C892.106 42.8584 893.402 41.5551 893.402 39.9474C893.402 38.3397 892.106 37.0363 890.507 37.0363C888.908 37.0363 887.612 38.3397 887.612 39.9474C887.612 41.5551 888.908 42.8584 890.507 42.8584Z" fill="#E5E5E5" fill-opacity="0.16"/>
<path d="M890.507 63.1775C892.106 63.1775 893.402 61.8742 893.402 60.2664C893.402 58.6587 892.106 57.3554 890.507 57.3554C888.908 57.3554 887.612 58.6587 887.612 60.2664C887.612 61.8742 888.908 63.1775 890.507 63.1775Z" fill="#E5E5E5" fill-opacity="0.16"/>
<path d="M890.507 83.5118C892.106 83.5118 893.402 82.2084 893.402 80.6007C893.402 78.993 892.106 77.6897 890.507 77.6897C888.908 77.6897 887.612 78.993 887.612 80.6007C887.612 82.2084 888.908 83.5118 890.507 83.5118Z" fill="#E5E5E5" fill-opacity="0.16"/>
<path d="M890.507 103.83C892.106 103.83 893.402 102.527 893.402 100.919C893.402 99.3117 892.106 98.0084 890.507 98.0084C888.908 98.0084 887.612 99.3117 887.612 100.919C887.612 102.527 888.908 103.83 890.507 103.83Z" fill="#E5E5E5" fill-opacity="0.16"/>
<path d="M890.507 124.165C892.106 124.165 893.402 122.861 893.402 121.254C893.402 119.646 892.106 118.343 890.507 118.343C888.908 118.343 887.612 119.646 887.612 121.254C887.612 122.861 888.908 124.165 890.507 124.165Z" fill="#E5E5E5" fill-opacity="0.16"/>
<path d="M890.507 144.484C892.106 144.484 893.402 143.181 893.402 141.573C893.402 139.965 892.106 138.662 890.507 138.662C888.908 138.662 887.612 139.965 887.612 141.573C887.612 143.181 888.908 144.484 890.507 144.484Z" fill="#E5E5E5" fill-opacity="0.16"/>
<path d="M870.302 22.5241C871.901 22.5241 873.197 21.2207 873.197 19.613C873.197 18.0053 871.901 16.702 870.302 16.702C868.704 16.702 867.408 18.0053 867.408 19.613C867.408 21.2207 868.704 22.5241 870.302 22.5241Z" fill="#E5E5E5" fill-opacity="0.16"/>
<path d="M870.302 42.8584C871.901 42.8584 873.197 41.5551 873.197 39.9474C873.197 38.3397 871.901 37.0363 870.302 37.0363C868.704 37.0363 867.408 38.3397 867.408 39.9474C867.408 41.5551 868.704 42.8584 870.302 42.8584Z" fill="#E5E5E5" fill-opacity="0.16"/>
<path d="M870.302 63.1775C871.901 63.1775 873.197 61.8742 873.197 60.2664C873.197 58.6587 871.901 57.3554 870.302 57.3554C868.704 57.3554 867.408 58.6587 867.408 60.2664C867.408 61.8742 868.704 63.1775 870.302 63.1775Z" fill="#E5E5E5" fill-opacity="0.16"/>
<path d="M870.302 83.5118C871.901 83.5118 873.197 82.2084 873.197 80.6007C873.197 78.993 871.901 77.6897 870.302 77.6897C868.704 77.6897 867.408 78.993 867.408 80.6007C867.408 82.2084 868.704 83.5118 870.302 83.5118Z" fill="#E5E5E5" fill-opacity="0.16"/>
<path d="M870.302 103.83C871.901 103.83 873.197 102.527 873.197 100.919C873.197 99.3117 871.901 98.0084 870.302 98.0084C868.704 98.0084 867.408 99.3117 867.408 100.919C867.408 102.527 868.704 103.83 870.302 103.83Z" fill="#E5E5E5" fill-opacity="0.16"/>
<path d="M870.302 124.165C871.901 124.165 873.197 122.861 873.197 121.254C873.197 119.646 871.901 118.343 870.302 118.343C868.704 118.343 867.408 119.646 867.408 121.254C867.408 122.861 868.704 124.165 870.302 124.165Z" fill="#E5E5E5" fill-opacity="0.16"/>
<path d="M870.302 144.484C871.901 144.484 873.197 143.181 873.197 141.573C873.197 139.965 871.901 138.662 870.302 138.662C868.704 138.662 867.408 139.965 867.408 141.573C867.408 143.181 868.704 144.484 870.302 144.484Z" fill="#E5E5E5" fill-opacity="0.16"/>
<path d="M850.084 22.525C851.682 22.525 852.978 21.2217 852.978 19.614C852.978 18.0063 851.682 16.7029 850.084 16.7029C848.485 16.7029 847.189 18.0063 847.189 19.614C847.189 21.2217 848.485 22.525 850.084 22.525Z" fill="#E5E5E5" fill-opacity="0.16"/>
<path d="M850.083 42.8584C851.682 42.8584 852.978 41.5551 852.978 39.9474C852.978 38.3397 851.682 37.0363 850.083 37.0363C848.484 37.0363 847.188 38.3397 847.188 39.9474C847.188 41.5551 848.484 42.8584 850.083 42.8584Z" fill="#E5E5E5" fill-opacity="0.16"/>
<path d="M850.083 63.1775C851.682 63.1775 852.978 61.8742 852.978 60.2664C852.978 58.6587 851.682 57.3554 850.083 57.3554C848.484 57.3554 847.188 58.6587 847.188 60.2664C847.188 61.8742 848.484 63.1775 850.083 63.1775Z" fill="#E5E5E5" fill-opacity="0.16"/>
<path d="M850.083 83.5117C851.682 83.5117 852.978 82.2084 852.978 80.6007C852.978 78.993 851.682 77.6897 850.083 77.6897C848.484 77.6897 847.188 78.993 847.188 80.6007C847.188 82.2084 848.484 83.5117 850.083 83.5117Z" fill="#E5E5E5" fill-opacity="0.16"/>
<path d="M850.083 103.83C851.682 103.83 852.978 102.527 852.978 100.919C852.978 99.3117 851.682 98.0084 850.083 98.0084C848.484 98.0084 847.188 99.3117 847.188 100.919C847.188 102.527 848.484 103.83 850.083 103.83Z" fill="#E5E5E5" fill-opacity="0.16"/>
<path d="M850.083 124.165C851.682 124.165 852.978 122.861 852.978 121.254C852.978 119.646 851.682 118.343 850.083 118.343C848.484 118.343 847.188 119.646 847.188 121.254C847.188 122.861 848.484 124.165 850.083 124.165Z" fill="#E5E5E5" fill-opacity="0.16"/>
<path d="M850.083 144.484C851.682 144.484 852.978 143.181 852.978 141.573C852.978 139.965 851.682 138.662 850.083 138.662C848.484 138.662 847.188 139.965 847.188 141.573C847.188 143.181 848.484 144.484 850.083 144.484Z" fill="#E5E5E5" fill-opacity="0.16"/>
</g>
<defs>
<clipPath id="clip0">
<rect width="900" height="160" rx="16" fill="white"/>
</clipPath>
<clipPath id="clip1">
<rect width="84" height="77" fill="white" transform="translate(621 40)"/>
</clipPath>
<clipPath id="clip2">
<rect width="200" height="58.5253" fill="white" transform="translate(119 27)"/>
</clipPath>
</defs>
</svg>
