<svg width="900" height="160" viewBox="0 0 900 160" fill="none" xmlns="http://www.w3.org/2000/svg">
<g clip-path="url(#clip0)">
<rect width="900" height="160" rx="4" fill="white"/>
<rect width="900" height="160" rx="4" fill="#8257E5"/>
<path d="M631 19L640.3 28.3525" stroke="#04D361" stroke-width="2" stroke-miterlimit="10" stroke-linecap="round" stroke-linejoin="round"/>
<path d="M640.3 19L631 28.3525" stroke="#04D361" stroke-width="2" stroke-miterlimit="10" stroke-linecap="round" stroke-linejoin="round"/>
<path d="M81.5749 132.445V145.671" stroke="#04D361" stroke-width="2" stroke-miterlimit="10" stroke-linecap="round" stroke-linejoin="round"/>
<path d="M88.1675 139.056H75" stroke="#04D361" stroke-width="2" stroke-miterlimit="10" stroke-linecap="round" stroke-linejoin="round"/>
<path d="M510.986 128.443C510.986 132.872 507.413 136.481 502.993 136.481C498.588 136.481 495 132.888 495 128.443C495 124.014 498.573 120.405 502.993 120.405C507.413 120.421 510.986 124.014 510.986 128.443Z" stroke="#04D361" stroke-width="2" stroke-miterlimit="10" stroke-linecap="round" stroke-linejoin="round"/>
<path d="M14.5386 25.0401C16.1373 25.0401 17.4334 23.7368 17.4334 22.1291C17.4334 20.5214 16.1373 19.2181 14.5386 19.2181C12.9398 19.2181 11.6437 20.5214 11.6437 22.1291C11.6437 23.7368 12.9398 25.0401 14.5386 25.0401Z" fill="#8257E5"/>
<path d="M34.7427 25.0401C36.3415 25.0401 37.6375 23.7368 37.6375 22.1291C37.6375 20.5214 36.3415 19.2181 34.7427 19.2181C33.144 19.2181 31.8479 20.5214 31.8479 22.1291C31.8479 23.7368 33.144 25.0401 34.7427 25.0401Z" fill="#8257E5"/>
<path d="M54.9622 25.0401C56.561 25.0401 57.8571 23.7368 57.8571 22.1291C57.8571 20.5214 56.561 19.2181 54.9622 19.2181C53.3635 19.2181 52.0674 20.5214 52.0674 22.1291C52.0674 23.7368 53.3635 25.0401 54.9622 25.0401Z" fill="#8257E5"/>
<path d="M14.5389 45.3592C16.1377 45.3592 17.4338 44.0559 17.4338 42.4481C17.4338 40.8404 16.1377 39.5371 14.5389 39.5371C12.9402 39.5371 11.6441 40.8404 11.6441 42.4481C11.6441 44.0559 12.9402 45.3592 14.5389 45.3592Z" fill="#8257E5"/>
<path d="M34.743 45.3592C36.3417 45.3592 37.6378 44.0559 37.6378 42.4481C37.6378 40.8404 36.3417 39.5371 34.743 39.5371C33.1442 39.5371 31.8481 40.8404 31.8481 42.4481C31.8481 44.0559 33.1442 45.3592 34.743 45.3592Z" fill="#8257E5"/>
<path d="M54.9622 45.3592C56.561 45.3592 57.8571 44.0559 57.8571 42.4481C57.8571 40.8404 56.561 39.5371 54.9622 39.5371C53.3635 39.5371 52.0674 40.8404 52.0674 42.4481C52.0674 44.0559 53.3635 45.3592 54.9622 45.3592Z" fill="#8257E5"/>
<path d="M14.5389 65.6935C16.1377 65.6935 17.4338 64.3902 17.4338 62.7825C17.4338 61.1748 16.1377 59.8714 14.5389 59.8714C12.9402 59.8714 11.6441 61.1748 11.6441 62.7825C11.6441 64.3902 12.9402 65.6935 14.5389 65.6935Z" fill="#8257E5"/>
<path d="M34.743 65.6935C36.3417 65.6935 37.6378 64.3902 37.6378 62.7825C37.6378 61.1748 36.3417 59.8714 34.743 59.8714C33.1442 59.8714 31.8481 61.1748 31.8481 62.7825C31.8481 64.3902 33.1442 65.6935 34.743 65.6935Z" fill="#8257E5"/>
<path d="M54.9622 65.6935C56.561 65.6935 57.8571 64.3902 57.8571 62.7825C57.8571 61.1748 56.561 59.8714 54.9622 59.8714C53.3635 59.8714 52.0674 61.1748 52.0674 62.7825C52.0674 64.3902 53.3635 65.6935 54.9622 65.6935Z" fill="#8257E5"/>
<path d="M14.5389 86.0122C16.1377 86.0122 17.4338 84.7088 17.4338 83.1011C17.4338 81.4934 16.1377 80.19 14.5389 80.19C12.9402 80.19 11.6441 81.4934 11.6441 83.1011C11.6441 84.7088 12.9402 86.0122 14.5389 86.0122Z" fill="#8257E5"/>
<path d="M34.743 86.0122C36.3417 86.0122 37.6378 84.7088 37.6378 83.1011C37.6378 81.4934 36.3417 80.19 34.743 80.19C33.1442 80.19 31.8481 81.4934 31.8481 83.1011C31.8481 84.7088 33.1442 86.0122 34.743 86.0122Z" fill="#8257E5"/>
<path d="M54.9622 86.0122C56.561 86.0122 57.8571 84.7088 57.8571 83.1011C57.8571 81.4934 56.561 80.19 54.9622 80.19C53.3635 80.19 52.0674 81.4934 52.0674 83.1011C52.0674 84.7088 53.3635 86.0122 54.9622 86.0122Z" fill="#8257E5"/>
<path d="M897.507 25.0402C899.106 25.0402 900.402 23.7369 900.402 22.1292C900.402 20.5214 899.106 19.2181 897.507 19.2181C895.908 19.2181 894.612 20.5214 894.612 22.1292C894.612 23.7369 895.908 25.0402 897.507 25.0402Z" fill="#8257E5"/>
<path d="M897.507 45.3745C899.106 45.3745 900.402 44.0712 900.402 42.4635C900.402 40.8558 899.106 39.5525 897.507 39.5525C895.908 39.5525 894.612 40.8558 894.612 42.4635C894.612 44.0712 895.908 45.3745 897.507 45.3745Z" fill="#8257E5"/>
<path d="M897.507 65.6936C899.106 65.6936 900.402 64.3903 900.402 62.7826C900.402 61.1748 899.106 59.8715 897.507 59.8715C895.908 59.8715 894.612 61.1748 894.612 62.7826C894.612 64.3903 895.908 65.6936 897.507 65.6936Z" fill="#8257E5"/>
<path d="M897.507 86.0279C899.106 86.0279 900.402 84.7246 900.402 83.1169C900.402 81.5092 899.106 80.2059 897.507 80.2059C895.908 80.2059 894.612 81.5092 894.612 83.1169C894.612 84.7246 895.908 86.0279 897.507 86.0279Z" fill="#8257E5"/>
<path d="M897.507 106.347C899.106 106.347 900.402 105.043 900.402 103.436C900.402 101.828 899.106 100.525 897.507 100.525C895.908 100.525 894.612 101.828 894.612 103.436C894.612 105.043 895.908 106.347 897.507 106.347Z" fill="#8257E5"/>
<path d="M897.507 126.681C899.106 126.681 900.402 125.378 900.402 123.77C900.402 122.162 899.106 120.859 897.507 120.859C895.908 120.859 894.612 122.162 894.612 123.77C894.612 125.378 895.908 126.681 897.507 126.681Z" fill="#8257E5"/>
<path d="M897.507 147C899.106 147 900.402 145.697 900.402 144.089C900.402 142.481 899.106 141.178 897.507 141.178C895.908 141.178 894.612 142.481 894.612 144.089C894.612 145.697 895.908 147 897.507 147Z" fill="#8257E5"/>
<path d="M877.302 25.0402C878.901 25.0402 880.197 23.7369 880.197 22.1292C880.197 20.5214 878.901 19.2181 877.302 19.2181C875.704 19.2181 874.408 20.5214 874.408 22.1292C874.408 23.7369 875.704 25.0402 877.302 25.0402Z" fill="#8257E5"/>
<path d="M877.302 45.3745C878.901 45.3745 880.197 44.0712 880.197 42.4635C880.197 40.8558 878.901 39.5525 877.302 39.5525C875.704 39.5525 874.408 40.8558 874.408 42.4635C874.408 44.0712 875.704 45.3745 877.302 45.3745Z" fill="#8257E5"/>
<path d="M877.302 65.6936C878.901 65.6936 880.197 64.3903 880.197 62.7826C880.197 61.1748 878.901 59.8715 877.302 59.8715C875.704 59.8715 874.408 61.1748 874.408 62.7826C874.408 64.3903 875.704 65.6936 877.302 65.6936Z" fill="#8257E5"/>
<path d="M877.302 86.0279C878.901 86.0279 880.197 84.7246 880.197 83.1169C880.197 81.5092 878.901 80.2059 877.302 80.2059C875.704 80.2059 874.408 81.5092 874.408 83.1169C874.408 84.7246 875.704 86.0279 877.302 86.0279Z" fill="#8257E5"/>
<path d="M877.302 106.347C878.901 106.347 880.197 105.043 880.197 103.436C880.197 101.828 878.901 100.525 877.302 100.525C875.704 100.525 874.408 101.828 874.408 103.436C874.408 105.043 875.704 106.347 877.302 106.347Z" fill="#8257E5"/>
<path d="M877.302 126.681C878.901 126.681 880.197 125.378 880.197 123.77C880.197 122.162 878.901 120.859 877.302 120.859C875.704 120.859 874.408 122.162 874.408 123.77C874.408 125.378 875.704 126.681 877.302 126.681Z" fill="#8257E5"/>
<path d="M877.302 147C878.901 147 880.197 145.697 880.197 144.089C880.197 142.481 878.901 141.178 877.302 141.178C875.704 141.178 874.408 142.481 874.408 144.089C874.408 145.697 875.704 147 877.302 147Z" fill="#8257E5"/>
<path d="M857.084 25.0412C858.682 25.0412 859.978 23.7379 859.978 22.1301C859.978 20.5224 858.682 19.2191 857.084 19.2191C855.485 19.2191 854.189 20.5224 854.189 22.1301C854.189 23.7379 855.485 25.0412 857.084 25.0412Z" fill="#8257E5"/>
<path d="M857.083 45.3745C858.682 45.3745 859.978 44.0712 859.978 42.4635C859.978 40.8558 858.682 39.5525 857.083 39.5525C855.484 39.5525 854.188 40.8558 854.188 42.4635C854.188 44.0712 855.484 45.3745 857.083 45.3745Z" fill="#8257E5"/>
<path d="M857.083 65.6936C858.682 65.6936 859.978 64.3903 859.978 62.7826C859.978 61.1748 858.682 59.8715 857.083 59.8715C855.484 59.8715 854.188 61.1748 854.188 62.7826C854.188 64.3903 855.484 65.6936 857.083 65.6936Z" fill="#8257E5"/>
<path d="M857.083 86.0279C858.682 86.0279 859.978 84.7246 859.978 83.1169C859.978 81.5092 858.682 80.2058 857.083 80.2058C855.484 80.2058 854.188 81.5092 854.188 83.1169C854.188 84.7246 855.484 86.0279 857.083 86.0279Z" fill="#8257E5"/>
<path d="M857.083 106.347C858.682 106.347 859.978 105.043 859.978 103.436C859.978 101.828 858.682 100.525 857.083 100.525C855.484 100.525 854.188 101.828 854.188 103.436C854.188 105.043 855.484 106.347 857.083 106.347Z" fill="#8257E5"/>
<path d="M857.083 126.681C858.682 126.681 859.978 125.378 859.978 123.77C859.978 122.162 858.682 120.859 857.083 120.859C855.484 120.859 854.188 122.162 854.188 123.77C854.188 125.378 855.484 126.681 857.083 126.681Z" fill="#8257E5"/>
<path d="M857.083 147C858.682 147 859.978 145.697 859.978 144.089C859.978 142.481 858.682 141.178 857.083 141.178C855.484 141.178 854.188 142.481 854.188 144.089C854.188 145.697 855.484 147 857.083 147Z" fill="#8257E5"/>
<g clip-path="url(#clip1)">
<path d="M780.926 48.2903H711.074C710.21 48.2903 709.382 48.6343 708.772 49.2467C708.161 49.8591 707.818 50.6897 707.818 51.5557V121.443C707.818 122.309 708.161 123.139 708.772 123.752C709.382 124.364 710.21 124.708 711.074 124.708H780.926C781.79 124.708 782.618 124.364 783.228 123.752C783.839 123.139 784.182 122.309 784.182 121.443V51.5565C784.182 50.6905 783.839 49.8599 783.228 49.2475C782.618 48.6351 781.79 48.2911 780.926 48.2911V48.2903Z" fill="#202024"/>
<path fill-rule="evenodd" clip-rule="evenodd" d="M759.559 69.606C759.559 70.7573 760.036 71.3314 760.99 71.3314C761.564 71.3314 762.195 71.1492 762.874 70.7851L763.738 73.283C762.694 73.8422 761.71 74.124 760.788 74.124C759.442 74.124 758.401 73.7523 757.666 73.0113C756.933 72.2703 756.566 71.2084 756.566 69.8313V64.9049H754.137V62.4538H756.566V58.343L759.563 57.4351V62.4542H763.943V64.9053H759.563L759.56 69.606H759.559ZM740.028 68.7646H731.402C731.554 69.5668 731.89 70.2058 732.412 70.6827C732.935 71.1597 733.542 71.3983 734.24 71.3983C735.526 71.3983 736.464 70.8984 737.054 69.8986L739.732 70.4655C739.248 71.6168 738.53 72.4864 737.577 73.0786C736.623 73.6684 735.511 73.9631 734.24 73.9631C732.605 73.9631 731.228 73.4039 730.108 72.2836C728.988 71.1633 728.429 69.7245 728.429 67.9676C728.429 66.2107 728.993 64.7699 730.121 63.6419C731.249 62.5139 732.638 61.9487 734.286 61.9487C735.83 61.9487 737.157 62.4897 738.265 63.5717C739.374 64.6538 739.964 66.0438 740.023 67.739V68.7646H740.028ZM732.549 65.1081C732.01 65.4721 731.659 65.9849 731.493 66.6521H736.962C736.78 65.9547 736.447 65.4338 735.963 65.0851C735.478 64.7364 734.92 64.5618 734.284 64.5618C733.664 64.5618 733.087 64.7441 732.549 65.1081ZM725.66 63.6205C726.493 64.505 726.908 65.654 726.908 67.0617V73.9651H723.911V67.6955C723.911 66.8932 723.703 66.249 723.285 65.7604C722.87 65.2758 722.314 65.0347 721.617 65.0347C719.741 65.0347 718.803 66.3369 718.803 68.9404V73.9623H715.807V62.63H718.803V63.6532C719.71 62.7453 720.9 62.2914 722.366 62.2914C723.729 62.2889 724.826 62.7324 725.659 63.6197L725.66 63.6205ZM749.426 73.9651H752.988L748.949 68.4461L752.988 62.6328H749.426L746.725 66.5385L744.047 62.6328H740.484L744.523 68.4461L740.484 73.9651H744.047L746.725 70.2623L749.426 73.9651ZM723.091 77.722V93.9315H726.087V77.722H723.091ZM739.501 88.731H730.877C731.028 89.5332 731.364 90.1722 731.887 90.6491C732.409 91.126 733.017 91.3647 733.714 91.3647C735 91.3647 735.939 90.8648 736.528 89.865L739.207 90.4314C738.723 91.5828 738.005 92.4524 737.051 93.0446C736.098 93.6344 734.986 93.9295 733.714 93.9295C732.079 93.9295 730.703 93.3703 729.583 92.2496C728.462 91.1289 727.904 89.6905 727.904 87.934C727.904 86.1775 728.468 84.7363 729.596 83.6083C730.724 82.4803 732.113 81.9159 733.76 81.9159C735.304 81.9159 736.631 82.4569 737.739 83.5393C738.848 84.6218 739.439 86.0114 739.497 87.7066V88.7322L739.501 88.731ZM732.023 85.0745C731.484 85.4385 731.133 85.9513 730.967 86.6185H736.436C736.254 85.9211 735.921 85.401 735.436 85.0515C734.952 84.702 734.393 84.5282 733.758 84.5282C733.14 84.5307 732.561 84.7129 732.023 85.0745ZM739.617 82.5766L744.814 93.9315H747.039L752.236 82.5766H749.035L745.926 89.5719L742.818 82.5766H739.616H739.617ZM763.949 88.731H755.324C755.475 89.5332 755.811 90.1722 756.334 90.6491C756.857 91.126 757.465 91.3647 758.161 91.3647C759.448 91.3647 760.386 90.8648 760.976 89.865L763.654 90.4314C763.17 91.5828 762.452 92.4524 761.499 93.0446C760.545 93.6344 759.433 93.9295 758.161 93.9295C756.526 93.9295 755.15 93.3703 754.03 92.2496C752.91 91.1289 752.351 89.6905 752.351 87.934C752.351 86.1775 752.915 84.7363 754.043 83.6083C755.171 82.4803 756.56 81.9159 758.208 81.9159C759.751 81.9159 761.078 82.4569 762.187 83.5393C763.295 84.6218 763.886 86.0114 763.945 87.7066V88.7322L763.949 88.731ZM756.47 85.0745C755.932 85.4385 755.581 85.9513 755.414 86.6185H760.883C760.702 85.9211 760.369 85.401 759.884 85.0515C759.399 84.702 758.841 84.5282 758.205 84.5282C757.585 84.5307 757.006 84.7129 756.47 85.0745ZM765.766 77.7224V93.9319H768.762V77.722H765.766V77.7224ZM729.206 112.755H726.707L724.257 106.077L721.784 112.755H719.288L715.087 101.4H718.288L720.649 108.19L723.078 101.4H725.416L727.846 108.213L730.206 101.4H733.407L729.206 112.755H729.206ZM736.721 107.554H745.345V106.528C745.286 104.833 744.699 103.443 743.586 102.361C742.474 101.279 741.147 100.738 739.608 100.738C737.96 100.738 736.571 101.302 735.443 102.431C734.315 103.56 733.751 105 733.751 106.757C733.751 108.513 734.314 109.952 735.43 111.072C736.546 112.193 737.926 112.752 739.561 112.752C740.833 112.752 741.945 112.457 742.898 111.867C743.852 111.275 744.57 110.405 745.054 109.254L742.376 108.688C741.786 109.687 740.849 110.187 739.562 110.187C738.865 110.187 738.257 109.949 737.734 109.472C737.211 108.995 736.876 108.356 736.724 107.554L736.721 107.554ZM736.81 105.441C736.977 104.774 737.328 104.261 737.866 103.897C738.402 103.535 738.981 103.353 739.601 103.351C740.236 103.351 740.796 103.525 741.28 103.874C741.764 104.222 742.097 104.743 742.279 105.44H736.811L736.81 105.441ZM757.852 107.554H749.228C749.379 108.356 749.714 108.995 750.237 109.472C750.761 109.949 751.368 110.188 752.065 110.188C753.351 110.188 754.289 109.688 754.878 108.688L757.557 109.255C757.072 110.406 756.355 111.275 755.401 111.868C754.448 112.457 753.335 112.753 752.064 112.753C750.429 112.753 749.053 112.193 747.933 111.073C746.813 109.952 746.254 108.514 746.254 106.757C746.254 105.001 746.818 103.559 747.946 102.431C749.074 101.304 750.463 100.738 752.111 100.738C753.654 100.738 754.981 101.28 756.09 102.362C757.198 103.444 757.789 104.834 757.848 106.529V107.554L757.852 107.554ZM750.373 103.898C749.835 104.262 749.484 104.775 749.317 105.442H754.787C754.605 104.744 754.271 104.224 753.787 103.875C753.303 103.526 752.744 103.352 752.108 103.352C751.488 103.355 750.909 103.536 750.373 103.898V103.898ZM762.119 112.755V108.462L766.661 112.752H770.746L764.843 107.074L770.313 101.42H766.522L762.12 105.872V96.535H759.123V112.755H762.12H762.119Z" fill="white"/>
<path fill-rule="evenodd" clip-rule="evenodd" d="M712.601 66.4518V63.3411L704.017 66.5376L704 66.5312V69.7241L704.017 69.7176L712.601 72.9141V69.8035L708.196 68.1276L712.601 66.4518ZM779.396 113.329V110.218L783.798 108.544L779.396 106.87V103.754L787.977 106.95L787.997 106.942V110.137L787.977 110.129L779.396 113.324V113.329ZM770.818 92.7096V95.1841H780.354V92.7096H770.818H770.818ZM712.113 95.6618V93.1865H721.65V95.6618H712.114H712.113ZM775.711 99.3586L770.664 115.568H773.661L778.707 99.3586H775.711Z" fill="#7159C1"/>
<path d="M786.958 62.0067H773.674C772.955 62.0067 772.372 62.5915 772.372 63.3129V70.661C772.372 71.3824 772.955 71.9672 773.674 71.9672H786.958C787.677 71.9672 788.26 71.3824 788.26 70.661V63.3129C788.26 62.5915 787.677 62.0067 786.958 62.0067Z" fill="#7159C1"/>
<path d="M776.731 67.6717H776.17L775.961 68.8682H775.428L775.637 67.6717H774.977V67.1694H775.724L775.87 66.3405H775.195V65.8325H775.96L776.172 64.6231H776.701L776.489 65.8325H777.053L777.267 64.6231H777.799L777.586 65.8325H778.223V66.3405H777.5L777.355 67.1694H778.006V67.6713H777.267L777.058 68.8678H776.526L776.735 67.6713L776.731 67.6717ZM776.257 67.1698H776.818L776.964 66.3409H776.4L776.257 67.1698ZM781.431 67.119C781.431 67.6947 781.312 68.1349 781.074 68.4401C780.837 68.7452 780.489 68.8976 780.031 68.8976C779.578 68.8976 779.232 68.7485 778.993 68.4485C778.754 68.1486 778.631 67.7205 778.625 67.1617V66.3957C778.625 65.8144 778.745 65.373 778.984 65.0718C779.224 64.7707 779.573 64.6203 780.029 64.6203C780.486 64.6203 780.828 64.7695 781.067 65.0694C781.307 65.3693 781.429 65.7951 781.435 66.3534V67.1194L781.431 67.119ZM780.607 66.278C780.607 65.9329 780.559 65.6822 780.464 65.5258C780.37 65.3693 780.225 65.2839 780.025 65.2839C779.831 65.2839 779.687 65.3593 779.595 65.5096C779.502 65.66 779.455 65.8918 779.45 66.2103V67.2181C779.45 67.5576 779.496 67.81 779.587 67.9761C779.678 68.1421 779.828 68.2179 780.032 68.2179C780.235 68.2179 780.379 68.1389 780.468 67.9761C780.557 67.8132 780.604 67.5757 780.608 67.2496V66.2659L780.607 66.278ZM784.835 68.8404H781.989V68.278L783.332 66.8428C783.517 66.6413 783.652 66.4639 783.74 66.3139C783.827 66.1639 783.874 66.0204 783.874 65.885C783.874 65.6995 783.827 65.5552 783.734 65.4504C783.64 65.3456 783.508 65.2903 783.335 65.2903C783.149 65.2903 783.001 65.3548 782.893 65.4846C782.784 65.6144 782.733 65.7809 782.733 65.991H781.906C781.906 65.737 781.966 65.5056 782.085 65.296C782.205 65.0863 782.378 64.9223 782.599 64.8041C782.819 64.686 783.069 64.6239 783.349 64.6239C783.776 64.6239 784.112 64.7267 784.343 64.9327C784.581 65.1343 784.7 65.4294 784.7 65.8051C784.7 66.0067 784.647 66.2204 784.54 66.434C784.434 66.6477 784.251 66.8964 783.993 67.1798L783.049 68.178H784.834V68.8444L784.835 68.8404Z" fill="white"/>
</g>
<g clip-path="url(#clip2)">
<path d="M145.529 43.4756H121.587C115.215 43.4756 112 46.5684 112 52.6943V85.4803C112 86.2833 112.431 86.7777 113.361 86.7777H120.598C121.464 86.7777 122.022 86.2833 122.022 85.4803V84.2355C122.022 81.1988 123.302 79.5437 126.482 79.2246H145.529C152.518 79.2246 155.674 76.195 155.674 69.5747V53.1256C155.674 46.5052 152.518 43.4756 145.529 43.4756ZM145.663 66.7905C145.663 70.3812 144.849 71.1211 140.578 71.1211H130.434C126.166 71.1211 123.442 72.5447 122.018 75.3289V55.1068C122.018 52.3226 122.698 51.5792 126.1 51.5792H140.578C144.849 51.5792 145.663 52.3226 145.663 55.9097V66.7905Z" fill="white"/>
<path d="M178.624 61.6008C173.119 61.6008 170.766 64.385 170.766 69.0873V85.603C170.766 86.3464 170.394 86.7777 169.528 86.7777H162.971C162.105 86.7777 161.673 86.3464 161.673 85.603V55.4153C161.673 54.6719 162.105 54.2371 162.971 54.2371H168.476C169.283 54.2371 169.714 54.6719 169.714 55.4153V60.2859C170.766 56.2674 173.799 54.2231 179.182 54.2231H181.408C182.211 54.2231 182.642 54.6579 182.642 55.4013V60.4262C182.642 61.2291 182.211 61.6008 181.408 61.6008H178.624Z" fill="white"/>
<path d="M221.305 77.9307C221.305 84.0566 218.584 86.7777 212.09 86.7777H196.006C189.571 86.7777 186.787 84.0566 186.787 77.9307V63.0911C186.787 56.9687 189.571 54.2441 196.006 54.2441H212.09C218.584 54.2441 221.305 56.9687 221.305 63.0911V77.9307ZM212.213 65.437C212.213 62.218 211.596 61.6008 207.76 61.6008H200.396C196.5 61.6008 195.88 62.218 195.88 65.437V75.5814C195.88 78.7968 196.5 79.4175 200.396 79.4175H207.76C211.596 79.4175 212.213 78.7968 212.213 75.5814V65.437Z" fill="white"/>
<path d="M230.461 61.6008H227.365C226.558 61.6008 226.127 61.2291 226.127 60.4262V55.4153C226.127 54.6719 226.558 54.2371 227.365 54.2371H230.457V50.2187C230.461 44.0928 233.676 41 240.048 41H247.657C248.523 41 248.895 41.4348 248.895 42.1747V47.1855C248.895 47.992 248.523 48.3602 247.657 48.3602H243.638C240.234 48.3602 239.553 49.1036 239.553 51.8878V54.2371H247.657C248.523 54.2371 248.895 54.6719 248.895 55.4153V60.4262C248.895 61.2291 248.523 61.6008 247.657 61.6008H239.553V85.603C239.553 86.3464 239.122 86.7777 238.256 86.7777H231.699C230.833 86.7777 230.461 86.3464 230.461 85.603V61.6008Z" fill="white"/>
<path d="M255.701 61.6008H252.612C251.809 61.6008 251.377 61.2291 251.377 60.4262V55.4153C251.377 54.6719 251.809 54.2371 252.612 54.2371H255.708V50.2187C255.701 44.0928 258.923 41 265.288 41H272.897C273.763 41 274.135 41.4348 274.135 42.1747V47.1855C274.135 47.992 273.763 48.3602 272.897 48.3602H268.875C265.474 48.3602 264.793 49.1036 264.793 51.8878V54.2371H272.897C273.763 54.2371 274.135 54.6719 274.135 55.4153V60.4262C274.135 61.2291 273.763 61.6008 272.897 61.6008H264.793V85.603C264.793 86.3464 264.359 86.7777 263.492 86.7777H256.935C256.069 86.7777 255.701 86.3464 255.701 85.603V61.6008Z" fill="white"/>
<path d="M301.784 99.3977H288.298C282.238 99.3977 279.64 97.0483 279.64 91.231V90.6138C279.622 90.4478 279.642 90.2799 279.697 90.1225C279.753 89.9651 279.844 89.8223 279.962 89.7047C280.081 89.5872 280.225 89.4978 280.382 89.4433C280.54 89.3889 280.708 89.3706 280.874 89.3901H287.186C288.052 89.3901 288.483 89.8249 288.483 90.6279V90.9364C288.483 92.1742 289.167 92.6687 290.528 92.6687H298.323C302.033 92.6687 302.962 91.7429 302.962 88.5871V78.8284C301.538 81.6126 298.817 83.0362 294.546 83.0362H288.234C281.8 83.0362 278.953 80.3152 278.953 74.1893V55.4153C278.944 55.2532 278.971 55.0912 279.031 54.9404C279.091 54.7896 279.183 54.6536 279.301 54.5417C279.418 54.4297 279.559 54.3446 279.712 54.292C279.866 54.2395 280.029 54.2207 280.191 54.2371H286.811C287.614 54.2371 288.049 54.6719 288.049 55.4153V71.8574C288.049 75.0729 288.729 75.6936 292.565 75.6936H297.267C301.349 75.6936 302.958 74.021 302.958 70.6196V55.4153C302.958 54.6719 303.39 54.2371 304.196 54.2371H310.82C310.978 54.2218 311.138 54.2418 311.288 54.2957C311.438 54.3495 311.574 54.4359 311.686 54.5486C311.798 54.6613 311.884 54.7974 311.938 54.9473C311.991 55.0972 312.01 55.257 311.995 55.4153V89.5619C311.991 96.0525 308.527 99.3977 301.784 99.3977Z" fill="white"/>
</g>
<path d="M119.074 126.126C117.91 126.126 116.848 125.856 115.888 125.316C114.928 124.764 114.166 124.002 113.602 123.03C113.05 122.046 112.774 120.942 112.774 119.718C112.774 118.494 113.05 117.396 113.602 116.424C114.166 115.44 114.928 114.678 115.888 114.138C116.848 113.586 117.91 113.31 119.074 113.31C120.25 113.31 121.318 113.586 122.278 114.138C123.238 114.678 123.994 115.434 124.546 116.406C125.098 117.378 125.374 118.482 125.374 119.718C125.374 120.954 125.098 122.058 124.546 123.03C123.994 124.002 123.238 124.764 122.278 125.316C121.318 125.856 120.25 126.126 119.074 126.126ZM119.074 124.704C119.95 124.704 120.736 124.5 121.432 124.092C122.14 123.684 122.692 123.102 123.088 122.346C123.496 121.59 123.7 120.714 123.7 119.718C123.7 118.71 123.496 117.834 123.088 117.09C122.692 116.334 122.146 115.752 121.45 115.344C120.754 114.936 119.962 114.732 119.074 114.732C118.186 114.732 117.394 114.936 116.698 115.344C116.002 115.752 115.45 116.334 115.042 117.09C114.646 117.834 114.448 118.71 114.448 119.718C114.448 120.714 114.646 121.59 115.042 122.346C115.45 123.102 116.002 123.684 116.698 124.092C117.406 124.5 118.198 124.704 119.074 124.704ZM132.342 115.956C133.542 115.956 134.514 116.322 135.258 117.054C136.002 117.774 136.374 118.818 136.374 120.186V126H134.754V120.42C134.754 119.436 134.508 118.686 134.016 118.17C133.524 117.642 132.852 117.378 132 117.378C131.136 117.378 130.446 117.648 129.93 118.188C129.426 118.728 129.174 119.514 129.174 120.546V126H127.536V116.136H129.174V117.54C129.498 117.036 129.936 116.646 130.488 116.37C131.052 116.094 131.67 115.956 132.342 115.956ZM140.688 112.68V126H139.05V112.68H140.688ZM144.326 114.534C144.014 114.534 143.75 114.426 143.534 114.21C143.318 113.994 143.21 113.73 143.21 113.418C143.21 113.106 143.318 112.842 143.534 112.626C143.75 112.41 144.014 112.302 144.326 112.302C144.626 112.302 144.878 112.41 145.082 112.626C145.298 112.842 145.406 113.106 145.406 113.418C145.406 113.73 145.298 113.994 145.082 114.21C144.878 114.426 144.626 114.534 144.326 114.534ZM145.118 116.136V126H143.48V116.136H145.118ZM152.715 115.956C153.915 115.956 154.887 116.322 155.631 117.054C156.375 117.774 156.747 118.818 156.747 120.186V126H155.127V120.42C155.127 119.436 154.881 118.686 154.389 118.17C153.897 117.642 153.225 117.378 152.373 117.378C151.509 117.378 150.819 117.648 150.303 118.188C149.799 118.728 149.547 119.514 149.547 120.546V126H147.909V116.136H149.547V117.54C149.871 117.036 150.309 116.646 150.861 116.37C151.425 116.094 152.043 115.956 152.715 115.956ZM168.423 120.69C168.423 121.002 168.405 121.332 168.369 121.68H160.485C160.545 122.652 160.875 123.414 161.475 123.966C162.087 124.506 162.825 124.776 163.689 124.776C164.397 124.776 164.985 124.614 165.453 124.29C165.933 123.954 166.269 123.51 166.461 122.958H168.225C167.961 123.906 167.433 124.68 166.641 125.28C165.849 125.868 164.865 126.162 163.689 126.162C162.753 126.162 161.913 125.952 161.169 125.532C160.437 125.112 159.861 124.518 159.441 123.75C159.021 122.97 158.811 122.07 158.811 121.05C158.811 120.03 159.015 119.136 159.423 118.368C159.831 117.6 160.401 117.012 161.133 116.604C161.877 116.184 162.729 115.974 163.689 115.974C164.625 115.974 165.453 116.178 166.173 116.586C166.893 116.994 167.445 117.558 167.829 118.278C168.225 118.986 168.423 119.79 168.423 120.69ZM166.731 120.348C166.731 119.724 166.593 119.19 166.317 118.746C166.041 118.29 165.663 117.948 165.183 117.72C164.715 117.48 164.193 117.36 163.617 117.36C162.789 117.36 162.081 117.624 161.493 118.152C160.917 118.68 160.587 119.412 160.503 120.348H166.731ZM178.876 126.162C178.12 126.162 177.442 126.036 176.842 125.784C176.242 125.52 175.768 125.16 175.42 124.704C175.072 124.236 174.88 123.702 174.844 123.102H176.536C176.584 123.594 176.812 123.996 177.22 124.308C177.64 124.62 178.186 124.776 178.858 124.776C179.482 124.776 179.974 124.638 180.334 124.362C180.694 124.086 180.874 123.738 180.874 123.318C180.874 122.886 180.682 122.568 180.298 122.364C179.914 122.148 179.32 121.938 178.516 121.734C177.784 121.542 177.184 121.35 176.716 121.158C176.26 120.954 175.864 120.66 175.528 120.276C175.204 119.88 175.042 119.364 175.042 118.728C175.042 118.224 175.192 117.762 175.492 117.342C175.792 116.922 176.218 116.592 176.77 116.352C177.322 116.1 177.952 115.974 178.66 115.974C179.752 115.974 180.634 116.25 181.306 116.802C181.978 117.354 182.338 118.11 182.386 119.07H180.748C180.712 118.554 180.502 118.14 180.118 117.828C179.746 117.516 179.242 117.36 178.606 117.36C178.018 117.36 177.55 117.486 177.202 117.738C176.854 117.99 176.68 118.32 176.68 118.728C176.68 119.052 176.782 119.322 176.986 119.538C177.202 119.742 177.466 119.91 177.778 120.042C178.102 120.162 178.546 120.3 179.11 120.456C179.818 120.648 180.394 120.84 180.838 121.032C181.282 121.212 181.66 121.488 181.972 121.86C182.296 122.232 182.464 122.718 182.476 123.318C182.476 123.858 182.326 124.344 182.026 124.776C181.726 125.208 181.3 125.55 180.748 125.802C180.208 126.042 179.584 126.162 178.876 126.162ZM186.786 117.486V123.3C186.786 123.78 186.888 124.122 187.092 124.326C187.296 124.518 187.65 124.614 188.154 124.614H189.36V126H187.884C186.972 126 186.288 125.79 185.832 125.37C185.376 124.95 185.148 124.26 185.148 123.3V117.486H183.87V116.136H185.148V113.652H186.786V116.136H189.36V117.486H186.786ZM200.093 116.136V126H198.455V124.542C198.143 125.046 197.705 125.442 197.141 125.73C196.589 126.006 195.977 126.144 195.305 126.144C194.537 126.144 193.847 125.988 193.235 125.676C192.623 125.352 192.137 124.872 191.777 124.236C191.429 123.6 191.255 122.826 191.255 121.914V116.136H192.875V121.698C192.875 122.67 193.121 123.42 193.613 123.948C194.105 124.464 194.777 124.722 195.629 124.722C196.505 124.722 197.195 124.452 197.699 123.912C198.203 123.372 198.455 122.586 198.455 121.554V116.136H200.093ZM202.247 121.032C202.247 120.024 202.451 119.142 202.859 118.386C203.267 117.618 203.825 117.024 204.533 116.604C205.253 116.184 206.057 115.974 206.945 115.974C207.713 115.974 208.427 116.154 209.087 116.514C209.747 116.862 210.251 117.324 210.599 117.9V112.68H212.255V126H210.599V124.146C210.275 124.734 209.795 125.22 209.159 125.604C208.523 125.976 207.779 126.162 206.927 126.162C206.051 126.162 205.253 125.946 204.533 125.514C203.825 125.082 203.267 124.476 202.859 123.696C202.451 122.916 202.247 122.028 202.247 121.032ZM210.599 121.05C210.599 120.306 210.449 119.658 210.149 119.106C209.849 118.554 209.441 118.134 208.925 117.846C208.421 117.546 207.863 117.396 207.251 117.396C206.639 117.396 206.081 117.54 205.577 117.828C205.073 118.116 204.671 118.536 204.371 119.088C204.071 119.64 203.921 120.288 203.921 121.032C203.921 121.788 204.071 122.448 204.371 123.012C204.671 123.564 205.073 123.99 205.577 124.29C206.081 124.578 206.639 124.722 207.251 124.722C207.863 124.722 208.421 124.578 208.925 124.29C209.441 123.99 209.849 123.564 210.149 123.012C210.449 122.448 210.599 121.794 210.599 121.05ZM223.519 116.136L217.579 130.644H215.887L217.831 125.892L213.853 116.136H215.671L218.767 124.128L221.827 116.136H223.519ZM231.602 117.954C231.926 117.39 232.406 116.922 233.042 116.55C233.69 116.166 234.44 115.974 235.292 115.974C236.168 115.974 236.96 116.184 237.668 116.604C238.388 117.024 238.952 117.618 239.36 118.386C239.768 119.142 239.972 120.024 239.972 121.032C239.972 122.028 239.768 122.916 239.36 123.696C238.952 124.476 238.388 125.082 237.668 125.514C236.96 125.946 236.168 126.162 235.292 126.162C234.452 126.162 233.708 125.976 233.06 125.604C232.424 125.22 231.938 124.746 231.602 124.182V130.68H229.964V116.136H231.602V117.954ZM238.298 121.032C238.298 120.288 238.148 119.64 237.848 119.088C237.548 118.536 237.14 118.116 236.624 117.828C236.12 117.54 235.562 117.396 234.95 117.396C234.35 117.396 233.792 117.546 233.276 117.846C232.772 118.134 232.364 118.56 232.052 119.124C231.752 119.676 231.602 120.318 231.602 121.05C231.602 121.794 231.752 122.448 232.052 123.012C232.364 123.564 232.772 123.99 233.276 124.29C233.792 124.578 234.35 124.722 234.95 124.722C235.562 124.722 236.12 124.578 236.624 124.29C237.14 123.99 237.548 123.564 237.848 123.012C238.148 122.448 238.298 121.788 238.298 121.032ZM243.766 112.68V126H242.128V112.68H243.766ZM245.946 121.032C245.946 120.024 246.15 119.142 246.558 118.386C246.966 117.618 247.524 117.024 248.232 116.604C248.952 116.184 249.75 115.974 250.626 115.974C251.49 115.974 252.24 116.16 252.876 116.532C253.512 116.904 253.986 117.372 254.298 117.936V116.136H255.954V126H254.298V124.164C253.974 124.74 253.488 125.22 252.84 125.604C252.204 125.976 251.46 126.162 250.608 126.162C249.732 126.162 248.94 125.946 248.232 125.514C247.524 125.082 246.966 124.476 246.558 123.696C246.15 122.916 245.946 122.028 245.946 121.032ZM254.298 121.05C254.298 120.306 254.148 119.658 253.848 119.106C253.548 118.554 253.14 118.134 252.624 117.846C252.12 117.546 251.562 117.396 250.95 117.396C250.338 117.396 249.78 117.54 249.276 117.828C248.772 118.116 248.37 118.536 248.07 119.088C247.77 119.64 247.62 120.288 247.62 121.032C247.62 121.788 247.77 122.448 248.07 123.012C248.37 123.564 248.772 123.99 249.276 124.29C249.78 124.578 250.338 124.722 250.95 124.722C251.562 124.722 252.12 124.578 252.624 124.29C253.14 123.99 253.548 123.564 253.848 123.012C254.148 122.448 254.298 121.794 254.298 121.05ZM260.72 117.486V123.3C260.72 123.78 260.822 124.122 261.026 124.326C261.23 124.518 261.584 124.614 262.088 124.614H263.294V126H261.818C260.906 126 260.222 125.79 259.766 125.37C259.31 124.95 259.082 124.26 259.082 123.3V117.486H257.804V116.136H259.082V113.652H260.72V116.136H263.294V117.486H260.72ZM264.667 121.032C264.667 120.024 264.871 119.142 265.279 118.386C265.687 117.618 266.245 117.024 266.953 116.604C267.673 116.184 268.471 115.974 269.347 115.974C270.211 115.974 270.961 116.16 271.597 116.532C272.233 116.904 272.707 117.372 273.019 117.936V116.136H274.675V126H273.019V124.164C272.695 124.74 272.209 125.22 271.561 125.604C270.925 125.976 270.181 126.162 269.329 126.162C268.453 126.162 267.661 125.946 266.953 125.514C266.245 125.082 265.687 124.476 265.279 123.696C264.871 122.916 264.667 122.028 264.667 121.032ZM273.019 121.05C273.019 120.306 272.869 119.658 272.569 119.106C272.269 118.554 271.861 118.134 271.345 117.846C270.841 117.546 270.283 117.396 269.671 117.396C269.059 117.396 268.501 117.54 267.997 117.828C267.493 118.116 267.091 118.536 266.791 119.088C266.491 119.64 266.341 120.288 266.341 121.032C266.341 121.788 266.491 122.448 266.791 123.012C267.091 123.564 267.493 123.99 267.997 124.29C268.501 124.578 269.059 124.722 269.671 124.722C270.283 124.722 270.841 124.578 271.345 124.29C271.861 123.99 272.269 123.564 272.569 123.012C272.869 122.448 273.019 121.794 273.019 121.05ZM281.457 117.486H279.387V126H277.749V117.486H276.471V116.136H277.749V115.434C277.749 114.33 278.031 113.526 278.595 113.022C279.171 112.506 280.089 112.248 281.349 112.248V113.616C280.629 113.616 280.119 113.76 279.819 114.048C279.531 114.324 279.387 114.786 279.387 115.434V116.136H281.457V117.486ZM287.668 126.162C286.744 126.162 285.904 125.952 285.148 125.532C284.404 125.112 283.816 124.518 283.384 123.75C282.964 122.97 282.754 122.07 282.754 121.05C282.754 120.042 282.97 119.154 283.402 118.386C283.846 117.606 284.446 117.012 285.202 116.604C285.958 116.184 286.804 115.974 287.74 115.974C288.676 115.974 289.522 116.184 290.278 116.604C291.034 117.012 291.628 117.6 292.06 118.368C292.504 119.136 292.726 120.03 292.726 121.05C292.726 122.07 292.498 122.97 292.042 123.75C291.598 124.518 290.992 125.112 290.224 125.532C289.456 125.952 288.604 126.162 287.668 126.162ZM287.668 124.722C288.256 124.722 288.808 124.584 289.324 124.308C289.84 124.032 290.254 123.618 290.566 123.066C290.89 122.514 291.052 121.842 291.052 121.05C291.052 120.258 290.896 119.586 290.584 119.034C290.272 118.482 289.864 118.074 289.36 117.81C288.856 117.534 288.31 117.396 287.722 117.396C287.122 117.396 286.57 117.534 286.066 117.81C285.574 118.074 285.178 118.482 284.878 119.034C284.578 119.586 284.428 120.258 284.428 121.05C284.428 121.854 284.572 122.532 284.86 123.084C285.16 123.636 285.556 124.05 286.048 124.326C286.54 124.59 287.08 124.722 287.668 124.722ZM296.518 117.738C296.806 117.174 297.214 116.736 297.742 116.424C298.282 116.112 298.936 115.956 299.704 115.956V117.648H299.272C297.436 117.648 296.518 118.644 296.518 120.636V126H294.88V116.136H296.518V117.738ZM313.457 115.956C314.225 115.956 314.909 116.118 315.509 116.442C316.109 116.754 316.583 117.228 316.931 117.864C317.279 118.5 317.453 119.274 317.453 120.186V126H315.833V120.42C315.833 119.436 315.587 118.686 315.095 118.17C314.615 117.642 313.961 117.378 313.133 117.378C312.281 117.378 311.603 117.654 311.099 118.206C310.595 118.746 310.343 119.532 310.343 120.564V126H308.723V120.42C308.723 119.436 308.477 118.686 307.985 118.17C307.505 117.642 306.851 117.378 306.023 117.378C305.171 117.378 304.493 117.654 303.989 118.206C303.485 118.746 303.233 119.532 303.233 120.564V126H301.595V116.136H303.233V117.558C303.557 117.042 303.989 116.646 304.529 116.37C305.081 116.094 305.687 115.956 306.347 115.956C307.175 115.956 307.907 116.142 308.543 116.514C309.179 116.886 309.653 117.432 309.965 118.152C310.241 117.456 310.697 116.916 311.333 116.532C311.969 116.148 312.677 115.956 313.457 115.956Z" fill="#D4C2FF"/>
<path d="M7.53856 22.524C9.13732 22.524 10.4334 21.2207 10.4334 19.613C10.4334 18.0052 9.13732 16.7019 7.53856 16.7019C5.93979 16.7019 4.64374 18.0052 4.64374 19.613C4.64374 21.2207 5.93979 22.524 7.53856 22.524Z" fill="#E5E5E5" fill-opacity="0.16"/>
<path d="M27.7427 22.524C29.3415 22.524 30.6375 21.2207 30.6375 19.613C30.6375 18.0052 29.3415 16.7019 27.7427 16.7019C26.144 16.7019 24.8479 18.0052 24.8479 19.613C24.8479 21.2207 26.144 22.524 27.7427 22.524Z" fill="#E5E5E5" fill-opacity="0.16"/>
<path d="M47.9622 22.524C49.561 22.524 50.8571 21.2207 50.8571 19.613C50.8571 18.0052 49.561 16.7019 47.9622 16.7019C46.3635 16.7019 45.0674 18.0052 45.0674 19.613C45.0674 21.2207 46.3635 22.524 47.9622 22.524Z" fill="#E5E5E5" fill-opacity="0.16"/>
<path d="M7.53892 42.843C9.13769 42.843 10.4338 41.5397 10.4338 39.932C10.4338 38.3243 9.13769 37.0209 7.53892 37.0209C5.94016 37.0209 4.6441 38.3243 4.6441 39.932C4.6441 41.5397 5.94016 42.843 7.53892 42.843Z" fill="#E5E5E5" fill-opacity="0.16"/>
<path d="M27.743 42.843C29.3417 42.843 30.6378 41.5397 30.6378 39.932C30.6378 38.3243 29.3417 37.0209 27.743 37.0209C26.1442 37.0209 24.8481 38.3243 24.8481 39.932C24.8481 41.5397 26.1442 42.843 27.743 42.843Z" fill="#E5E5E5" fill-opacity="0.16"/>
<path d="M47.9622 42.843C49.561 42.843 50.8571 41.5397 50.8571 39.932C50.8571 38.3243 49.561 37.0209 47.9622 37.0209C46.3635 37.0209 45.0674 38.3243 45.0674 39.932C45.0674 41.5397 46.3635 42.843 47.9622 42.843Z" fill="#E5E5E5" fill-opacity="0.16"/>
<path d="M7.53892 63.1774C9.13769 63.1774 10.4338 61.8741 10.4338 60.2663C10.4338 58.6586 9.13769 57.3553 7.53892 57.3553C5.94016 57.3553 4.6441 58.6586 4.6441 60.2663C4.6441 61.8741 5.94016 63.1774 7.53892 63.1774Z" fill="#E5E5E5" fill-opacity="0.16"/>
<path d="M27.743 63.1774C29.3417 63.1774 30.6378 61.8741 30.6378 60.2663C30.6378 58.6586 29.3417 57.3553 27.743 57.3553C26.1442 57.3553 24.8481 58.6586 24.8481 60.2663C24.8481 61.8741 26.1442 63.1774 27.743 63.1774Z" fill="#E5E5E5" fill-opacity="0.16"/>
<path d="M47.9622 63.1774C49.561 63.1774 50.8571 61.8741 50.8571 60.2663C50.8571 58.6586 49.561 57.3553 47.9622 57.3553C46.3635 57.3553 45.0674 58.6586 45.0674 60.2663C45.0674 61.8741 46.3635 63.1774 47.9622 63.1774Z" fill="#E5E5E5" fill-opacity="0.16"/>
<path d="M7.53892 83.496C9.13769 83.496 10.4338 82.1927 10.4338 80.585C10.4338 78.9772 9.13769 77.6739 7.53892 77.6739C5.94016 77.6739 4.6441 78.9772 4.6441 80.585C4.6441 82.1927 5.94016 83.496 7.53892 83.496Z" fill="#E5E5E5" fill-opacity="0.16"/>
<path d="M27.743 83.496C29.3417 83.496 30.6378 82.1927 30.6378 80.585C30.6378 78.9772 29.3417 77.6739 27.743 77.6739C26.1442 77.6739 24.8481 78.9772 24.8481 80.585C24.8481 82.1927 26.1442 83.496 27.743 83.496Z" fill="#E5E5E5" fill-opacity="0.16"/>
<path d="M47.9622 83.496C49.561 83.496 50.8571 82.1927 50.8571 80.585C50.8571 78.9772 49.561 77.6739 47.9622 77.6739C46.3635 77.6739 45.0674 78.9772 45.0674 80.585C45.0674 82.1927 46.3635 83.496 47.9622 83.496Z" fill="#E5E5E5" fill-opacity="0.16"/>
<path d="M890.507 22.5241C892.106 22.5241 893.402 21.2207 893.402 19.613C893.402 18.0053 892.106 16.702 890.507 16.702C888.908 16.702 887.612 18.0053 887.612 19.613C887.612 21.2207 888.908 22.5241 890.507 22.5241Z" fill="#E5E5E5" fill-opacity="0.16"/>
<path d="M890.507 42.8584C892.106 42.8584 893.402 41.5551 893.402 39.9474C893.402 38.3397 892.106 37.0363 890.507 37.0363C888.908 37.0363 887.612 38.3397 887.612 39.9474C887.612 41.5551 888.908 42.8584 890.507 42.8584Z" fill="#E5E5E5" fill-opacity="0.16"/>
<path d="M890.507 63.1775C892.106 63.1775 893.402 61.8742 893.402 60.2664C893.402 58.6587 892.106 57.3554 890.507 57.3554C888.908 57.3554 887.612 58.6587 887.612 60.2664C887.612 61.8742 888.908 63.1775 890.507 63.1775Z" fill="#E5E5E5" fill-opacity="0.16"/>
<path d="M890.507 83.5118C892.106 83.5118 893.402 82.2084 893.402 80.6007C893.402 78.993 892.106 77.6897 890.507 77.6897C888.908 77.6897 887.612 78.993 887.612 80.6007C887.612 82.2084 888.908 83.5118 890.507 83.5118Z" fill="#E5E5E5" fill-opacity="0.16"/>
<path d="M890.507 103.83C892.106 103.83 893.402 102.527 893.402 100.919C893.402 99.3117 892.106 98.0084 890.507 98.0084C888.908 98.0084 887.612 99.3117 887.612 100.919C887.612 102.527 888.908 103.83 890.507 103.83Z" fill="#E5E5E5" fill-opacity="0.16"/>
<path d="M890.507 124.165C892.106 124.165 893.402 122.861 893.402 121.254C893.402 119.646 892.106 118.343 890.507 118.343C888.908 118.343 887.612 119.646 887.612 121.254C887.612 122.861 888.908 124.165 890.507 124.165Z" fill="#E5E5E5" fill-opacity="0.16"/>
<path d="M890.507 144.484C892.106 144.484 893.402 143.181 893.402 141.573C893.402 139.965 892.106 138.662 890.507 138.662C888.908 138.662 887.612 139.965 887.612 141.573C887.612 143.181 888.908 144.484 890.507 144.484Z" fill="#E5E5E5" fill-opacity="0.16"/>
<path d="M870.302 22.5241C871.901 22.5241 873.197 21.2207 873.197 19.613C873.197 18.0053 871.901 16.702 870.302 16.702C868.704 16.702 867.408 18.0053 867.408 19.613C867.408 21.2207 868.704 22.5241 870.302 22.5241Z" fill="#E5E5E5" fill-opacity="0.16"/>
<path d="M870.302 42.8584C871.901 42.8584 873.197 41.5551 873.197 39.9474C873.197 38.3397 871.901 37.0363 870.302 37.0363C868.704 37.0363 867.408 38.3397 867.408 39.9474C867.408 41.5551 868.704 42.8584 870.302 42.8584Z" fill="#E5E5E5" fill-opacity="0.16"/>
<path d="M870.302 63.1775C871.901 63.1775 873.197 61.8742 873.197 60.2664C873.197 58.6587 871.901 57.3554 870.302 57.3554C868.704 57.3554 867.408 58.6587 867.408 60.2664C867.408 61.8742 868.704 63.1775 870.302 63.1775Z" fill="#E5E5E5" fill-opacity="0.16"/>
<path d="M870.302 83.5118C871.901 83.5118 873.197 82.2084 873.197 80.6007C873.197 78.993 871.901 77.6897 870.302 77.6897C868.704 77.6897 867.408 78.993 867.408 80.6007C867.408 82.2084 868.704 83.5118 870.302 83.5118Z" fill="#E5E5E5" fill-opacity="0.16"/>
<path d="M870.302 103.83C871.901 103.83 873.197 102.527 873.197 100.919C873.197 99.3117 871.901 98.0084 870.302 98.0084C868.704 98.0084 867.408 99.3117 867.408 100.919C867.408 102.527 868.704 103.83 870.302 103.83Z" fill="#E5E5E5" fill-opacity="0.16"/>
<path d="M870.302 124.165C871.901 124.165 873.197 122.861 873.197 121.254C873.197 119.646 871.901 118.343 870.302 118.343C868.704 118.343 867.408 119.646 867.408 121.254C867.408 122.861 868.704 124.165 870.302 124.165Z" fill="#E5E5E5" fill-opacity="0.16"/>
<path d="M870.302 144.484C871.901 144.484 873.197 143.181 873.197 141.573C873.197 139.965 871.901 138.662 870.302 138.662C868.704 138.662 867.408 139.965 867.408 141.573C867.408 143.181 868.704 144.484 870.302 144.484Z" fill="#E5E5E5" fill-opacity="0.16"/>
<path d="M850.084 22.525C851.682 22.525 852.978 21.2217 852.978 19.614C852.978 18.0063 851.682 16.7029 850.084 16.7029C848.485 16.7029 847.189 18.0063 847.189 19.614C847.189 21.2217 848.485 22.525 850.084 22.525Z" fill="#E5E5E5" fill-opacity="0.16"/>
<path d="M850.083 42.8584C851.682 42.8584 852.978 41.5551 852.978 39.9474C852.978 38.3397 851.682 37.0363 850.083 37.0363C848.484 37.0363 847.188 38.3397 847.188 39.9474C847.188 41.5551 848.484 42.8584 850.083 42.8584Z" fill="#E5E5E5" fill-opacity="0.16"/>
<path d="M850.083 63.1775C851.682 63.1775 852.978 61.8742 852.978 60.2664C852.978 58.6587 851.682 57.3554 850.083 57.3554C848.484 57.3554 847.188 58.6587 847.188 60.2664C847.188 61.8742 848.484 63.1775 850.083 63.1775Z" fill="#E5E5E5" fill-opacity="0.16"/>
<path d="M850.083 83.5117C851.682 83.5117 852.978 82.2084 852.978 80.6007C852.978 78.993 851.682 77.6897 850.083 77.6897C848.484 77.6897 847.188 78.993 847.188 80.6007C847.188 82.2084 848.484 83.5117 850.083 83.5117Z" fill="#E5E5E5" fill-opacity="0.16"/>
<path d="M850.083 103.83C851.682 103.83 852.978 102.527 852.978 100.919C852.978 99.3117 851.682 98.0084 850.083 98.0084C848.484 98.0084 847.188 99.3117 847.188 100.919C847.188 102.527 848.484 103.83 850.083 103.83Z" fill="#E5E5E5" fill-opacity="0.16"/>
<path d="M850.083 124.165C851.682 124.165 852.978 122.861 852.978 121.254C852.978 119.646 851.682 118.343 850.083 118.343C848.484 118.343 847.188 119.646 847.188 121.254C847.188 122.861 848.484 124.165 850.083 124.165Z" fill="#E5E5E5" fill-opacity="0.16"/>
<path d="M850.083 144.484C851.682 144.484 852.978 143.181 852.978 141.573C852.978 139.965 851.682 138.662 850.083 138.662C848.484 138.662 847.188 139.965 847.188 141.573C847.188 143.181 848.484 144.484 850.083 144.484Z" fill="#E5E5E5" fill-opacity="0.16"/>
</g>
<defs>
<clipPath id="clip0">
<rect width="900" height="160" rx="4" fill="white"/>
</clipPath>
<clipPath id="clip1">
<rect width="84" height="77" fill="white" transform="translate(704 48)"/>
</clipPath>
<clipPath id="clip2">
<rect width="200" height="58.5253" fill="white" transform="translate(112 41)"/>
</clipPath>
</defs>
</svg>
